<svg id="svg" version="1.1" xmlns="http://www.w3.org/2000/svg" xmlns:xlink="http://www.w3.org/1999/xlink" width="400" height="302.7692307692308" viewBox="0, 0, 400,302.7692307692308"><g id="svgg"><path id="path0" d="M229.069 94.351 C 223.817 95.527,216.643 101.499,216.087 105.158 C 216.057 105.361,215.935 105.680,215.818 105.867 C 214.707 107.643,214.401 113.478,215.248 116.730 C 219.479 132.968,241.527 135.716,249.255 120.967 C 256.520 107.101,244.269 90.948,229.069 94.351 M237.417 96.778 C 249.434 100.341,253.159 115.313,244.158 123.875 C 234.889 132.691,219.894 127.935,217.297 115.354 C 214.930 103.882,226.220 93.459,237.417 96.778 M232.551 99.167 C 232.551 100.648,232.652 101.152,232.930 101.060 C 233.175 100.978,233.308 100.311,233.308 99.167 C 233.308 98.023,233.175 97.357,232.930 97.275 C 232.652 97.182,232.551 97.687,232.551 99.167 M236.267 110.476 C 234.563 111.251,233.031 112.028,232.861 112.202 C 232.475 112.599,228.009 121.663,228.009 122.049 C 228.009 123.130,228.950 121.692,230.881 117.658 C 233.337 112.528,233.196 112.679,237.169 110.935 C 238.626 110.296,239.818 109.601,239.818 109.391 C 239.818 108.868,239.774 108.882,236.267 110.476 M217.937 112.217 C 217.458 112.696,218.175 112.945,220.028 112.945 C 221.473 112.945,221.970 112.843,221.879 112.566 C 221.744 112.160,218.299 111.854,217.937 112.217 M244.272 112.225 C 243.718 112.779,244.215 112.965,246.028 112.883 C 247.113 112.834,248.032 112.657,248.072 112.491 C 248.156 112.144,244.601 111.896,244.272 112.225 M155.541 112.655 C 143.960 114.023,133.430 119.101,124.938 127.412 C 121.646 130.634,121.047 131.653,112.354 148.827 C 108.139 157.154,103.296 166.692,101.591 170.023 C 99.886 173.354,95.046 182.892,90.835 191.219 C 86.624 199.546,83.002 206.631,82.785 206.964 C 82.569 207.298,82.366 207.706,82.334 207.873 C 82.302 208.039,82.077 208.481,81.832 208.854 C 81.588 209.227,80.842 210.794,80.176 212.336 C 73.148 228.602,74.912 240.452,84.887 243.988 C 87.466 244.902,88.541 244.968,100.904 244.971 L 113.541 244.974 113.724 245.803 C 114.396 248.840,115.621 251.166,117.812 253.562 C 118.632 254.460,119.304 255.257,119.304 255.334 C 119.304 255.410,117.634 255.563,115.594 255.673 C 105.901 256.194,95.766 257.482,94.952 258.296 C 93.679 259.568,105.338 261.013,124.134 261.913 C 131.223 262.252,131.082 262.281,131.330 260.430 C 131.474 259.359,131.597 259.180,132.139 259.258 C 132.812 259.354,132.961 260.214,132.527 261.499 C 132.285 262.216,134.497 262.524,139.894 262.525 L 142.468 262.526 141.559 261.962 C 138.427 260.017,137.837 257.436,140.203 256.031 C 141.032 255.539,141.711 255.045,141.711 254.934 C 141.711 254.823,142.444 253.838,143.340 252.745 C 145.189 250.489,146.096 248.780,146.625 246.552 L 146.991 245.011 191.664 244.987 C 216.233 244.974,236.502 245.072,236.705 245.204 C 236.907 245.336,237.346 246.324,237.678 247.400 C 238.011 248.476,238.901 250.297,239.657 251.445 C 240.412 252.594,241.030 253.616,241.030 253.716 C 241.030 253.817,225.326 253.856,206.132 253.803 C 167.396 253.697,161.879 253.803,162.147 254.648 C 162.470 255.665,161.650 256.909,158.644 259.964 L 155.622 263.036 166.304 263.236 C 190.957 263.698,247.685 263.389,246.729 262.798 C 246.440 262.619,246.524 262.369,247.069 261.789 L 247.794 261.017 248.876 262.099 C 249.767 262.989,250.112 263.149,250.831 263.006 C 251.311 262.910,251.959 262.831,252.271 262.831 C 252.583 262.831,252.839 262.674,252.839 262.482 C 252.839 261.311,254.236 259.222,255.027 259.210 C 255.928 259.196,255.908 259.445,254.852 261.447 C 253.956 263.145,256.188 263.524,257.680 261.927 C 258.577 260.966,259.440 261.243,259.013 262.355 C 258.838 262.811,259.047 262.847,261.051 262.703 C 262.280 262.614,266.079 262.466,269.493 262.373 C 291.691 261.766,310.977 260.000,310.977 258.573 C 310.977 257.338,299.533 256.075,279.637 255.114 C 267.996 254.552,266.926 254.522,266.570 254.742 C 265.482 255.414,265.575 254.291,266.719 252.945 C 267.983 251.458,269.794 248.326,269.797 247.621 C 269.798 247.410,269.932 246.760,270.094 246.177 L 270.388 245.117 279.252 245.039 C 290.341 244.942,291.990 244.459,294.578 240.552 C 296.275 237.989,296.293 237.807,296.262 223.316 L 296.233 209.992 253.473 209.916 C 219.266 209.854,210.758 209.915,210.940 210.218 C 211.118 210.514,211.063 210.512,210.692 210.212 C 210.326 209.916,207.897 209.829,200.263 209.841 C 194.789 209.850,184.894 209.853,178.275 209.849 L 166.240 209.841 166.163 161.166 L 166.086 112.491 161.847 112.451 C 159.516 112.429,156.678 112.521,155.541 112.655 M232.613 125.405 C 232.725 128.194,233.308 128.240,233.308 125.461 C 233.308 124.077,233.185 123.401,232.916 123.311 C 232.613 123.210,232.544 123.689,232.613 125.405 M153.395 143.317 L 154.126 144.167 154.126 163.311 C 154.126 184.438,154.209 183.529,152.224 184.015 C 149.830 184.602,109.455 183.993,109.563 183.372 C 109.618 183.053,110.742 180.549,112.061 177.807 C 113.380 175.065,114.459 172.780,114.459 172.730 C 114.459 172.680,116.040 169.325,117.973 165.275 C 119.906 161.225,121.938 156.957,122.488 155.791 C 129.472 140.985,127.526 142.303,142.267 142.400 L 152.665 142.468 153.395 143.317 M182.210 154.596 C 182.086 154.726,181.983 158.295,181.983 162.527 L 181.983 170.222 185.912 170.122 C 191.431 169.982,191.191 170.296,191.313 163.085 C 191.419 156.825,191.165 155.597,189.644 155.001 C 188.613 154.597,182.528 154.265,182.210 154.596 M196.961 154.802 C 196.878 155.019,196.846 158.533,196.891 162.610 L 196.972 170.023 200.454 170.023 L 203.936 170.023 203.936 168.660 L 203.936 167.298 202.535 167.207 C 201.190 167.120,201.127 167.074,200.961 166.050 C 200.740 164.688,201.180 163.503,201.884 163.563 C 203.331 163.686,203.482 163.554,203.482 162.168 C 203.482 160.833,203.474 160.823,202.347 160.730 C 200.129 160.546,200.572 157.472,202.817 157.461 L 203.818 157.456 203.726 156.018 L 203.634 154.580 200.373 154.494 C 197.910 154.429,197.075 154.504,196.961 154.802 M209.235 162.301 L 209.235 170.174 212.415 170.174 L 215.594 170.174 215.594 168.660 L 215.594 167.146 214.567 167.146 C 213.181 167.146,213.172 167.100,213.172 160.308 L 213.172 154.428 211.204 154.428 L 209.235 154.428 209.235 162.301 M220.957 154.617 C 220.839 154.735,220.742 158.284,220.742 162.503 L 220.742 170.174 222.715 170.174 L 224.688 170.174 224.608 162.377 L 224.527 154.580 222.849 154.491 C 221.927 154.442,221.075 154.499,220.957 154.617 M229.728 154.656 C 229.654 154.780,229.917 156.995,230.312 159.576 C 230.707 162.157,231.171 165.291,231.343 166.540 C 231.901 170.586,231.509 170.208,235.044 170.109 L 238.126 170.023 238.656 166.238 C 240.415 153.694,240.456 154.428,238.002 154.428 C 235.804 154.428,235.964 154.124,235.448 159.275 C 235.212 161.637,234.961 163.626,234.891 163.696 C 234.820 163.767,234.598 162.017,234.398 159.808 C 233.876 154.053,234.059 154.428,231.779 154.428 C 230.725 154.428,229.801 154.531,229.728 154.656 M244.966 162.301 L 244.966 170.174 248.448 170.174 L 251.930 170.174 251.930 168.660 L 251.930 167.146 250.416 167.146 L 248.902 167.146 248.902 165.481 C 248.902 164.371,249.029 163.802,249.281 163.777 C 249.489 163.755,249.975 163.705,250.361 163.666 C 252.237 163.472,252.155 161.024,250.265 160.787 C 248.006 160.505,248.351 157.472,250.643 157.461 C 251.622 157.456,251.628 157.448,251.628 155.942 L 251.628 154.428 248.297 154.428 L 244.966 154.428 244.966 162.301 M257.365 155.067 C 257.333 156.464,257.322 169.120,257.351 169.644 C 257.376 170.091,257.688 170.174,259.349 170.174 L 261.317 170.174 261.317 166.670 C 261.317 163.495,261.367 163.175,261.847 163.267 C 262.308 163.355,262.388 163.811,262.463 166.771 L 262.548 170.174 264.337 170.174 L 266.125 170.174 266.334 168.777 C 266.650 166.674,266.262 163.804,265.529 162.808 C 264.938 162.006,264.931 161.928,265.419 161.571 C 266.101 161.073,266.454 158.659,266.093 156.966 C 265.708 155.162,264.955 154.822,260.765 154.556 L 257.381 154.342 257.365 155.067 M271.257 154.582 C 271.093 154.746,272.004 158.323,273.105 161.847 C 273.666 163.642,273.895 165.627,274.023 169.796 C 274.031 170.054,274.600 170.174,275.819 170.174 L 277.603 170.174 277.741 166.768 C 277.860 163.843,278.057 162.799,279.137 159.388 C 280.764 154.245,280.778 154.428,278.739 154.428 C 276.959 154.428,276.459 154.839,276.456 156.301 C 276.455 156.687,276.299 157.547,276.109 158.213 L 275.765 159.425 275.356 157.608 C 275.131 156.609,274.875 155.484,274.788 155.110 C 274.637 154.462,271.801 154.038,271.257 154.582 M146.080 155.767 C 145.564 157.825,146.889 158.419,148.191 156.713 C 149.183 155.411,149.017 155.034,147.452 155.034 C 146.448 155.034,146.236 155.147,146.080 155.767 M150.795 155.709 C 150.795 155.914,150.294 156.893,149.682 157.884 C 148.663 159.536,147.583 162.824,147.943 163.184 C 148.822 164.063,151.497 160.799,152.140 158.062 C 152.764 155.406,152.753 155.337,151.703 155.337 C 151.186 155.337,150.795 155.497,150.795 155.709 M187.120 157.739 C 187.954 159.297,187.425 167.449,186.490 167.449 C 185.910 167.449,185.562 157.916,186.122 157.356 C 186.470 157.007,186.796 157.133,187.120 157.739 M262.208 157.587 C 262.755 158.245,262.493 160.306,261.847 160.428 C 261.394 160.514,261.317 160.285,261.317 158.841 C 261.317 157.134,261.555 156.799,262.208 157.587 M155.364 193.750 C 156.213 194.800,156.134 196.657,155.199 197.591 L 154.456 198.335 147.216 198.335 L 139.977 198.335 139.178 197.536 C 138.002 196.360,138.066 194.717,139.330 193.653 L 140.279 192.854 147.532 192.945 C 154.739 193.035,154.789 193.040,155.364 193.750 M94.322 208.630 C 95.143 209.463,95.746 210.144,95.662 210.144 C 95.579 210.144,94.840 209.463,94.020 208.630 C 93.200 207.797,92.597 207.116,92.680 207.116 C 92.763 207.116,93.502 207.797,94.322 208.630 M112.793 227.101 C 113.614 227.933,114.216 228.615,114.133 228.615 C 114.050 228.615,113.311 227.933,112.491 227.101 C 111.670 226.268,111.067 225.587,111.151 225.587 C 111.234 225.587,111.973 226.268,112.793 227.101 M133.708 234.935 C 137.514 236.736,139.319 241.403,137.691 245.232 C 135.040 251.468,126.159 251.766,123.102 245.722 C 119.654 238.908,126.782 231.658,133.708 234.935 M257.403 235.049 C 264.904 238.951,262.226 250.114,253.790 250.114 C 245.194 250.114,242.675 238.451,250.485 234.815 C 252.844 233.716,254.979 233.788,257.403 235.049 M312.227 235.683 C 311.611 236.425,312.234 236.488,320.245 236.488 C 327.994 236.488,329.415 236.320,328.199 235.550 C 327.466 235.086,312.620 235.209,312.227 235.683 M335.259 235.496 C 333.389 235.844,334.981 236.341,338.228 236.422 C 341.444 236.503,342.646 236.263,342.044 235.660 C 341.795 235.410,336.415 235.280,335.259 235.496 M347.826 235.468 C 346.284 235.924,347.717 236.341,351.105 236.422 C 354.928 236.513,355.813 236.389,355.261 235.837 C 354.918 235.493,348.772 235.188,347.826 235.468 M305.841 242.680 C 305.213 243.437,306.152 243.471,325.360 243.384 C 341.539 243.311,343.830 243.244,343.830 242.846 C 343.830 242.166,306.404 242.002,305.841 242.680 M311.484 249.707 C 310.527 250.664,311.801 250.719,334.803 250.719 C 357.100 250.719,359.179 250.639,358.658 249.796 C 358.457 249.470,311.808 249.383,311.484 249.707 M363.197 249.831 C 362.832 250.422,363.386 250.567,366.338 250.654 C 369.234 250.739,370.296 250.497,369.892 249.845 C 369.616 249.398,363.472 249.386,363.197 249.831 M149.408 254.392 C 149.317 254.540,149.330 254.939,149.438 255.279 C 150.289 257.961,149.017 260.817,146.404 262.090 L 145.193 262.680 147.138 262.771 L 149.083 262.863 151.282 260.678 L 153.481 258.494 155.999 258.359 C 159.031 258.196,160.787 256.976,160.787 255.033 L 160.787 254.019 155.181 254.070 C 152.098 254.099,149.500 254.243,149.408 254.392 M264.345 256.448 C 264.345 257.508,260.710 260.840,260.157 260.287 C 259.738 259.868,259.896 259.623,261.728 257.844 C 263.880 255.754,264.345 255.506,264.345 256.448 M251.325 259.151 C 251.325 259.291,251.055 259.651,250.725 259.949 C 250.044 260.565,249.102 260.121,249.407 259.327 C 249.582 258.871,251.325 258.711,251.325 259.151 " stroke="none" fill="#213961" fill-rule="evenodd"></path><path id="path1" d="M228.951 96.769 C 222.706 98.449,218.022 103.880,217.155 110.447 C 216.982 111.758,217.007 112.341,217.234 112.344 C 217.470 112.347,217.469 112.411,217.234 112.571 C 216.647 112.967,217.570 117.105,218.767 119.446 C 224.479 130.614,239.764 131.465,246.539 120.991 C 254.382 108.867,242.878 93.024,228.951 96.769 M233.308 99.117 C 233.308 101.897,232.725 101.850,232.613 99.062 C 232.544 97.345,232.613 96.866,232.916 96.967 C 233.185 97.057,233.308 97.733,233.308 99.117 M240.114 109.387 C 240.110 109.595,238.850 110.299,237.313 110.951 C 234.413 112.182,232.854 113.094,232.854 113.560 C 232.854 114.055,228.507 122.634,228.256 122.634 C 227.668 122.634,228.154 121.282,230.357 116.796 L 232.702 112.017 235.882 110.541 C 239.196 109.004,240.126 108.750,240.114 109.387 M222.181 112.566 C 222.274 112.847,221.712 112.945,220.010 112.945 C 218.142 112.945,217.714 112.858,217.714 112.477 C 217.714 111.872,221.980 111.957,222.181 112.566 M248.297 112.491 C 248.297 112.851,247.859 112.945,246.177 112.945 C 244.495 112.945,244.058 112.851,244.058 112.491 C 244.058 112.130,244.495 112.036,246.177 112.036 C 247.859 112.036,248.297 112.130,248.297 112.491 M166.238 161.090 L 166.238 209.841 231.188 209.841 C 292.844 209.841,296.139 209.814,296.140 209.311 C 296.248 116.093,296.325 119.855,294.262 116.860 C 291.147 112.338,291.151 112.339,269.612 112.339 L 251.671 112.339 251.459 114.080 C 249.595 129.375,232.108 136.037,220.524 125.866 C 217.360 123.088,214.686 117.484,214.686 113.632 L 214.686 112.339 190.462 112.339 L 166.238 112.339 166.238 161.090 M233.460 125.183 C 233.460 128.828,232.665 129.260,232.578 125.662 C 232.529 123.650,232.599 123.240,232.990 123.240 C 233.365 123.240,233.460 123.629,233.460 125.183 M186.029 142.702 C 186.443 143.005,186.495 143.249,186.268 143.838 C 186.018 144.488,185.952 144.517,185.766 144.058 C 185.477 143.342,183.497 143.305,183.497 144.015 C 183.497 144.377,183.683 144.455,184.220 144.320 C 184.764 144.184,184.979 144.279,185.091 144.708 C 185.295 145.489,184.910 146.016,184.222 145.898 C 183.870 145.837,183.649 145.974,183.649 146.253 C 183.649 147.074,185.572 147.026,185.892 146.197 C 186.124 145.594,186.191 145.568,186.369 146.008 C 186.872 147.251,186.462 147.611,184.433 147.707 C 182.412 147.802,181.569 147.455,182.226 146.798 C 182.690 146.334,182.701 143.633,182.240 143.348 C 181.632 142.972,182.912 142.316,184.254 142.316 C 184.940 142.316,185.739 142.490,186.029 142.702 M200.518 143.396 C 200.955 144.353,200.142 145.604,198.926 145.847 C 197.891 146.054,197.738 146.711,198.668 146.954 C 199.589 147.195,199.072 147.768,197.938 147.762 C 196.676 147.756,195.882 147.278,196.486 146.889 C 196.805 146.683,196.870 146.134,196.749 144.633 C 196.570 142.400,196.579 142.391,198.860 142.576 C 199.909 142.661,200.263 142.836,200.518 143.396 M221.118 142.816 C 221.448 143.020,221.400 143.762,221.042 143.983 C 220.875 144.087,220.517 143.952,220.248 143.682 C 219.668 143.103,218.471 143.190,218.471 143.811 C 218.471 144.050,218.887 144.354,219.396 144.486 C 220.552 144.785,221.730 145.995,221.486 146.632 C 220.962 147.997,217.411 148.033,217.411 146.673 C 217.411 145.848,217.770 145.742,218.319 146.404 C 218.796 146.978,219.651 146.988,220.119 146.425 C 220.521 145.941,220.062 145.591,218.551 145.230 C 217.357 144.945,217.070 143.628,218.032 142.849 C 218.696 142.311,220.274 142.295,221.118 142.816 M228.079 143.026 C 228.652 143.925,227.959 144.611,227.259 143.838 C 226.652 143.167,225.742 143.031,225.414 143.561 C 225.164 143.967,225.739 144.387,226.884 144.636 C 228.324 144.948,228.850 146.852,227.672 147.483 C 226.835 147.930,224.398 147.573,224.166 146.968 C 223.857 146.163,224.541 145.846,225.388 146.401 C 225.814 146.680,226.408 146.861,226.707 146.804 C 227.693 146.614,227.277 145.889,225.889 145.378 C 224.240 144.771,223.864 143.623,225.039 142.786 C 225.804 142.242,227.674 142.389,228.079 143.026 M190.852 143.225 C 190.939 143.558,191.228 143.830,191.493 143.830 C 191.774 143.830,191.976 143.577,191.976 143.225 C 191.976 142.785,192.178 142.619,192.715 142.619 C 193.778 142.619,193.884 143.034,193.026 143.839 C 192.075 144.733,192.084 145.260,193.069 146.287 C 193.948 147.206,193.822 147.767,192.735 147.767 C 192.193 147.767,191.992 147.578,191.920 147.000 C 191.790 145.957,191.310 145.928,190.828 146.934 C 190.430 147.765,189.465 148.056,189.095 147.458 C 188.990 147.288,189.255 146.732,189.683 146.223 C 190.642 145.084,190.643 145.000,189.705 143.886 C 188.744 142.743,188.755 142.619,189.821 142.619 C 190.439 142.619,190.740 142.796,190.852 143.225 M206.982 143.049 C 207.505 143.431,207.529 143.588,207.195 144.471 C 206.885 145.294,206.897 145.580,207.271 146.150 C 208.283 147.694,207.391 147.969,206.110 146.509 C 205.144 145.408,204.202 145.700,204.935 146.873 C 205.401 147.619,204.827 147.942,203.589 147.631 C 202.988 147.481,202.875 147.344,203.136 147.084 C 203.565 146.655,203.596 143.634,203.174 143.373 C 202.523 142.970,203.282 142.619,204.805 142.619 C 205.700 142.619,206.651 142.807,206.982 143.049 M214.274 143.073 C 214.599 143.923,214.111 144.689,213.647 144.058 C 213.218 143.475,211.810 143.340,211.494 143.851 C 211.172 144.371,211.637 144.595,212.248 144.213 C 212.732 143.911,212.838 143.968,213.001 144.617 C 213.246 145.594,212.977 146.001,212.161 145.889 C 211.741 145.831,211.506 145.961,211.506 146.253 C 211.506 146.919,212.824 146.993,213.518 146.365 C 214.209 145.740,214.724 146.192,214.462 147.195 C 214.337 147.673,214.023 147.767,212.556 147.767 C 210.336 147.767,209.694 147.552,210.177 146.970 C 210.404 146.696,210.473 145.849,210.371 144.583 L 210.214 142.619 212.156 142.619 C 213.604 142.619,214.144 142.735,214.274 143.073 M198.149 143.670 C 197.430 144.202,197.935 144.838,198.957 144.689 C 199.858 144.557,200.043 143.956,199.303 143.560 C 198.878 143.332,198.567 143.362,198.149 143.670 M204.902 143.574 C 204.621 143.732,204.391 144.067,204.391 144.320 C 204.391 144.959,206.020 144.751,206.144 144.096 C 206.260 143.481,205.580 143.195,204.902 143.574 M145.647 146.858 C 145.014 147.060,145.088 147.095,146.101 147.071 C 146.768 147.056,147.721 147.145,148.221 147.269 C 149.102 147.487,149.098 147.480,148.111 147.025 C 146.999 146.513,146.775 146.498,145.647 146.858 M140.343 149.286 C 139.695 149.950,139.264 150.492,139.384 150.492 C 139.665 150.492,141.770 148.330,141.628 148.188 C 141.568 148.129,140.990 148.623,140.343 149.286 M138.278 152.440 C 138.187 152.678,137.661 152.929,137.110 152.997 C 136.221 153.107,136.253 153.126,137.396 153.169 C 138.497 153.210,138.683 153.130,138.683 152.612 C 138.683 151.901,138.513 151.829,138.278 152.440 M152.694 153.520 C 152.694 154.269,152.753 154.576,152.825 154.201 C 152.898 153.827,152.898 153.213,152.825 152.839 C 152.753 152.464,152.694 152.771,152.694 153.520 M133.312 154.343 C 133.773 154.413,134.454 154.411,134.826 154.339 C 135.199 154.267,134.822 154.210,133.989 154.212 C 133.157 154.215,132.852 154.273,133.312 154.343 M263.106 154.676 C 265.414 154.983,266.009 155.548,266.307 157.716 C 266.548 159.466,266.036 161.696,265.393 161.696 C 264.817 161.696,264.821 162.270,265.399 162.492 C 266.076 162.752,266.461 164.575,266.463 167.525 L 266.465 170.174 264.497 170.174 L 262.528 170.174 262.528 167.032 C 262.528 164.726,262.417 163.797,262.110 163.542 C 261.476 163.016,261.317 163.742,261.317 167.171 L 261.317 170.174 259.199 170.174 L 257.080 170.174 257.155 162.377 L 257.229 154.580 258.289 154.428 C 259.475 154.259,260.290 154.301,263.106 154.676 M138.209 154.906 C 138.747 155.445,138.821 156.829,138.390 158.331 C 137.965 159.810,138.887 160.958,140.395 160.828 C 141.659 160.719,141.785 161.695,140.545 161.988 L 139.836 162.155 140.472 162.730 C 141.042 163.246,141.229 163.266,142.285 162.917 C 144.327 162.243,144.971 164.287,143.331 166.236 L 142.530 167.189 143.676 166.410 C 144.307 165.982,144.975 165.630,145.160 165.628 C 145.345 165.626,146.511 164.945,147.751 164.114 C 148.991 163.284,149.873 162.604,149.711 162.604 C 149.549 162.604,149.122 162.810,148.762 163.062 C 147.345 164.054,148.054 159.703,149.623 157.778 C 150.288 156.963,150.396 156.646,150.123 156.317 C 149.855 155.994,149.873 155.835,150.200 155.633 C 150.860 155.225,150.322 154.942,149.611 155.322 C 149.264 155.508,148.715 156.180,148.390 156.816 C 147.631 158.305,146.165 158.466,146.006 157.078 C 145.953 156.620,145.766 156.245,145.590 156.245 C 145.393 156.245,145.418 156.068,145.653 155.784 C 146.179 155.151,146.197 155.156,142.619 154.807 C 137.785 154.334,137.640 154.338,138.209 154.906 M188.796 154.723 C 191.197 155.277,191.371 155.786,191.366 162.242 C 191.360 170.398,191.524 170.174,185.556 170.174 L 181.832 170.174 181.894 162.377 C 181.927 158.089,181.961 154.546,181.969 154.504 C 182.008 154.296,187.746 154.480,188.796 154.723 M203.725 156.018 L 203.634 157.608 202.347 157.701 L 201.060 157.794 201.060 159.139 C 201.060 160.454,201.082 160.485,202.044 160.489 C 203.539 160.496,203.837 160.821,203.729 162.331 L 203.634 163.664 202.347 163.757 L 201.060 163.850 201.060 165.498 L 201.060 167.146 202.574 167.146 L 204.088 167.146 204.088 168.660 L 204.088 170.174 200.454 170.174 L 196.821 170.174 196.821 162.301 L 196.821 154.428 200.319 154.428 L 203.817 154.428 203.725 156.018 M213.220 160.453 C 213.226 167.327,213.186 167.146,214.718 167.146 L 215.897 167.146 215.897 168.660 L 215.897 170.174 212.566 170.174 L 209.235 170.174 209.235 162.287 L 209.235 154.401 211.225 154.490 L 213.214 154.580 213.220 160.453 M224.981 162.301 L 224.981 170.174 222.861 170.174 L 220.742 170.174 220.742 162.301 L 220.742 154.428 222.861 154.428 L 224.981 154.428 224.981 162.301 M234.114 156.548 C 234.225 157.631,234.406 159.436,234.517 160.560 C 234.810 163.525,235.157 163.070,235.394 159.410 C 235.734 154.151,235.584 154.428,238.081 154.428 L 240.205 154.428 240.046 156.170 C 239.959 157.127,239.507 160.670,239.043 164.042 L 238.198 170.174 235.089 170.174 C 231.642 170.174,231.699 170.206,231.494 168.171 C 231.372 166.967,230.785 162.971,229.642 155.550 L 229.465 154.401 231.689 154.490 L 233.914 154.580 234.114 156.548 M251.779 156.094 C 251.779 157.511,251.733 157.601,251.065 157.508 C 249.429 157.278,248.902 157.668,248.902 159.110 L 248.902 160.450 250.189 160.543 L 251.476 160.636 251.476 162.146 C 251.476 163.423,251.383 163.670,250.871 163.747 C 248.858 164.052,248.864 164.046,248.962 165.566 L 249.054 166.995 250.568 167.146 L 252.082 167.298 252.082 168.736 L 252.082 170.175 248.448 170.175 L 244.815 170.175 244.900 162.292 L 244.986 154.409 248.382 154.494 L 251.779 154.580 251.779 156.094 M275.271 156.699 C 275.793 158.960,275.924 158.902,276.461 156.170 L 276.803 154.428 278.750 154.428 C 279.820 154.428,280.696 154.482,280.696 154.547 C 280.696 154.612,280.064 156.689,279.292 159.164 C 278.090 163.014,277.866 164.134,277.744 166.919 L 277.601 170.174 275.667 170.174 L 273.732 170.174 273.732 167.248 C 273.732 164.690,273.561 163.721,272.369 159.544 C 271.620 156.915,271.007 154.683,271.007 154.582 C 271.007 154.482,271.856 154.440,272.894 154.490 L 274.781 154.580 275.271 156.699 M185.970 162.373 C 186.060 166.768,186.127 167.301,186.601 167.392 C 187.080 167.484,187.135 167.144,187.172 163.837 C 187.249 157.087,187.287 157.456,186.500 157.456 C 185.881 157.456,185.870 157.559,185.970 162.373 M261.317 158.764 C 261.317 160.122,262.051 160.988,262.410 160.054 C 262.739 159.196,262.389 157.615,261.847 157.512 C 261.407 157.429,261.317 157.640,261.317 158.764 M153.243 161.883 C 153.645 162.402,154.035 162.773,154.110 162.706 C 154.184 162.640,153.855 162.215,153.379 161.762 L 152.512 160.939 153.243 161.883 M141.198 167.925 L 140.348 168.704 141.332 168.020 C 141.874 167.643,142.316 167.293,142.316 167.241 C 142.316 167.002,141.981 167.207,141.198 167.925 M138.820 170.250 L 137.623 171.537 138.910 170.340 C 140.107 169.227,140.336 168.963,140.107 168.963 C 140.057 168.963,139.478 169.542,138.820 170.250 M151.703 174.093 C 151.703 174.602,151.756 175.019,151.819 175.019 C 152.076 175.019,152.209 173.479,151.965 173.328 C 151.821 173.239,151.703 173.583,151.703 174.093 M238.304 177.930 C 238.304 178.666,237.886 178.898,237.547 178.350 C 237.338 178.011,236.092 177.938,235.784 178.246 C 235.443 178.587,236.224 179.258,236.962 179.258 C 238.235 179.258,239.004 180.937,238.131 181.810 C 237.274 182.667,234.368 182.320,234.368 181.360 C 234.368 180.573,234.999 180.287,235.431 180.877 C 235.637 181.159,236.213 181.378,236.748 181.378 C 238.144 181.378,237.977 180.568,236.499 180.170 C 233.458 179.351,234.316 176.622,237.468 177.084 C 238.113 177.179,238.304 177.372,238.304 177.930 M273.681 177.857 C 273.854 178.754,273.234 179.147,272.580 178.555 C 271.412 177.498,270.098 178.111,270.098 179.712 C 270.098 181.237,271.351 181.863,272.825 181.074 C 273.539 180.692,273.941 181.215,273.418 181.845 C 272.999 182.350,270.946 182.437,270.103 181.986 C 268.481 181.118,268.925 177.538,270.704 177.131 C 271.964 176.843,273.561 177.232,273.681 177.857 M245.572 178.047 C 245.572 178.653,245.420 178.955,245.117 178.955 C 244.868 178.955,244.663 178.742,244.663 178.482 C 244.663 178.130,244.410 178.033,243.679 178.103 C 242.587 178.209,242.462 178.802,243.532 178.808 C 244.048 178.811,244.232 179.015,244.307 179.665 C 244.396 180.442,244.328 180.510,243.550 180.418 C 242.947 180.348,242.695 180.452,242.695 180.772 C 242.695 181.467,244.324 181.542,244.820 180.870 C 245.312 180.204,245.994 180.681,245.824 181.573 C 245.735 182.038,245.385 182.150,243.784 182.226 C 241.460 182.336,240.809 182.160,241.308 181.558 C 241.829 180.930,241.923 178.892,241.465 178.157 C 240.903 177.258,241.142 177.139,243.502 177.139 L 245.572 177.139 245.572 178.047 M251.982 177.640 C 252.616 178.213,252.698 178.975,252.181 179.492 C 251.775 179.898,252.286 181.378,252.832 181.378 C 253.002 181.378,253.142 181.582,253.142 181.832 C 253.142 182.558,252.635 182.365,251.461 181.191 C 250.283 180.013,249.263 180.128,250.028 181.353 C 250.466 182.054,250.253 182.286,249.173 182.286 C 248.283 182.286,247.775 181.851,248.292 181.532 C 248.461 181.428,248.600 180.609,248.600 179.712 C 248.600 178.816,248.461 177.997,248.292 177.892 C 247.646 177.493,248.393 177.139,249.880 177.139 C 250.896 177.139,251.619 177.311,251.982 177.640 M256.667 178.311 C 256.617 180.212,257.353 180.792,258.062 179.411 C 258.469 178.617,258.539 178.197,258.310 177.921 C 257.884 177.408,258.207 177.139,259.248 177.139 C 260.313 177.139,260.329 176.986,258.970 179.872 C 257.701 182.568,257.257 182.807,256.589 181.151 C 255.755 179.080,255.248 178.075,254.945 177.887 C 254.433 177.571,254.953 177.139,255.846 177.139 C 256.638 177.139,256.695 177.220,256.667 178.311 M266.162 177.593 C 266.162 177.845,265.893 178.047,265.556 178.047 C 265.024 178.047,264.951 178.249,264.951 179.712 C 264.951 181.198,265.019 181.378,265.582 181.378 C 265.952 181.378,266.160 181.534,266.086 181.756 C 265.934 182.214,262.868 182.283,262.755 181.832 C 262.714 181.665,262.986 181.486,263.361 181.432 C 264.326 181.295,264.416 178.047,263.455 178.047 C 262.823 178.047,262.423 177.648,262.738 177.332 C 263.172 176.899,266.162 177.126,266.162 177.593 M280.394 178.047 C 280.394 179.004,279.974 179.271,279.679 178.501 C 279.432 177.858,277.668 177.889,277.668 178.536 C 277.668 178.874,277.853 178.978,278.263 178.871 C 278.983 178.682,279.624 179.367,279.364 180.046 C 279.236 180.380,278.933 180.492,278.422 180.395 C 277.837 180.283,277.668 180.377,277.668 180.814 C 277.668 181.573,279.330 181.600,279.754 180.848 C 280.131 180.180,280.807 180.730,280.646 181.573 C 280.556 182.046,280.204 182.149,278.422 182.222 L 276.306 182.310 276.306 179.724 L 276.306 177.139 278.350 177.139 L 280.394 177.139 280.394 178.047 M249.641 178.379 C 249.529 178.561,249.627 178.902,249.860 179.135 C 250.340 179.615,251.803 178.879,251.463 178.329 C 251.222 177.938,249.891 177.974,249.641 178.379 M119.989 180.081 C 120.449 180.151,121.131 180.149,121.503 180.077 C 121.875 180.005,121.499 179.948,120.666 179.950 C 119.833 179.953,119.529 180.011,119.989 180.081 M114.762 181.385 C 111.067 182.005,110.226 184.103,113.671 184.103 L 115.609 184.103 115.738 182.665 C 115.808 181.874,115.856 181.222,115.844 181.217 C 115.831 181.211,115.344 181.287,114.762 181.385 M139.312 193.668 C 138.578 194.285,138.382 194.688,138.390 195.561 C 138.412 198.104,139.140 198.335,147.161 198.335 C 155.183 198.335,155.911 198.104,155.933 195.561 C 155.940 194.688,155.744 194.285,155.011 193.668 L 154.079 192.884 147.161 192.884 L 140.243 192.884 139.312 193.668 " stroke="none" fill="#f9c25d" fill-rule="evenodd"></path><path id="path2" d="M0.000 151.400 L 0.000 302.801 200.000 302.801 L 400.000 302.801 400.000 151.400 L 400.000 0.000 200.000 0.000 L 0.000 0.000 0.000 151.400 M241.621 42.751 C 241.247 43.136,241.050 43.248,241.184 42.998 C 241.590 42.237,242.017 41.764,242.163 41.911 C 242.239 41.987,241.995 42.365,241.621 42.751 M245.330 47.860 C 244.780 48.360,244.197 48.686,244.033 48.585 C 243.870 48.483,244.183 48.082,244.729 47.693 C 246.145 46.686,246.510 46.787,245.330 47.860 M143.528 79.208 C 143.528 79.742,142.876 79.649,142.689 79.088 C 142.623 78.890,142.785 78.728,143.048 78.728 C 143.312 78.728,143.528 78.944,143.528 79.208 M142.619 80.275 C 142.619 80.459,142.824 80.531,143.073 80.436 C 143.339 80.334,143.528 80.431,143.528 80.671 C 143.528 81.109,142.162 81.491,141.503 81.238 C 140.759 80.953,141.039 79.939,141.862 79.939 C 142.279 79.939,142.619 80.090,142.619 80.275 M312.642 90.840 C 313.220 91.089,313.216 91.101,312.566 91.122 C 312.192 91.133,311.885 91.279,311.885 91.446 C 311.885 91.612,311.544 91.749,311.128 91.749 C 310.249 91.749,310.137 91.310,310.901 90.865 C 311.531 90.498,311.835 90.494,312.642 90.840 M309.765 93.111 C 309.765 93.361,309.629 93.565,309.463 93.565 C 309.296 93.565,309.160 93.361,309.160 93.111 C 309.160 92.861,309.296 92.657,309.463 92.657 C 309.629 92.657,309.765 92.861,309.765 93.111 M313.399 93.831 C 313.399 94.383,312.571 94.819,312.395 94.360 C 312.304 94.122,312.311 93.846,312.410 93.746 C 312.687 93.470,313.399 93.531,313.399 93.831 M239.667 94.929 C 246.353 97.602,251.234 104.049,251.704 110.825 L 251.798 112.188 270.108 112.339 C 284.989 112.462,288.614 112.571,289.468 112.922 C 293.529 114.589,296.136 118.515,296.142 122.972 C 296.146 125.762,296.502 128.453,296.739 127.479 C 296.962 126.564,297.306 126.532,298.390 127.328 C 301.194 129.384,301.613 130.189,301.818 133.921 C 302.009 137.377,302.650 138.543,304.576 138.937 C 305.482 139.122,305.735 139.432,307.049 141.970 C 307.854 143.525,308.713 145.022,308.957 145.298 C 310.498 147.036,310.674 147.845,310.674 153.209 C 310.674 156.025,310.796 158.405,310.945 158.497 C 311.336 158.738,311.582 157.912,311.582 156.357 C 311.582 154.371,312.688 152.612,313.935 152.612 C 314.085 152.612,315.423 154.070,316.907 155.853 C 318.392 157.636,320.356 159.967,321.272 161.033 C 322.799 162.811,323.735 164.047,325.353 166.419 C 325.682 166.902,326.024 167.366,326.112 167.449 C 327.191 168.462,330.824 175.902,331.605 178.698 C 332.824 183.063,333.370 185.368,333.551 186.920 C 333.653 187.785,333.815 188.698,333.912 188.948 C 334.009 189.198,334.114 189.743,334.146 190.159 C 334.177 190.575,334.359 192.415,334.550 194.247 C 335.482 203.182,334.672 213.792,332.445 221.837 C 330.856 227.577,330.212 229.469,328.816 232.497 C 327.781 234.741,327.797 234.624,328.424 235.317 C 329.107 236.071,328.754 236.731,327.609 236.846 C 326.763 236.930,326.525 237.176,325.668 238.851 C 325.130 239.901,324.535 240.916,324.344 241.107 C 324.153 241.297,323.997 241.562,323.997 241.696 C 323.997 241.829,328.416 241.938,333.816 241.938 C 342.526 241.938,343.692 241.994,344.134 242.436 C 345.045 243.347,344.035 243.443,333.420 243.447 L 323.009 243.452 322.065 244.454 C 321.545 245.005,320.643 246.043,320.061 246.760 C 319.478 247.478,318.830 248.244,318.622 248.462 C 318.414 248.680,318.244 248.937,318.244 249.032 C 318.244 249.127,327.158 249.205,338.052 249.205 C 358.554 249.205,358.819 249.217,358.819 250.114 C 358.819 251.012,358.579 251.022,336.842 251.022 L 315.823 251.022 314.384 252.047 C 310.366 254.908,308.390 255.383,299.621 255.595 C 298.123 255.631,297.373 255.708,297.956 255.767 C 322.277 258.193,313.352 260.855,275.852 262.359 C 260.994 262.955,251.207 263.253,249.281 263.169 C 248.407 263.131,247.691 263.212,247.691 263.349 C 247.691 263.630,161.645 263.615,157.154 263.334 C 155.572 263.235,151.211 263.079,147.464 262.989 C 119.494 262.311,97.054 260.638,94.912 259.072 C 93.503 258.041,95.074 257.415,101.364 256.499 L 104.921 255.981 101.287 255.759 C 93.862 255.305,92.255 254.678,86.026 249.811 C 82.076 246.724,76.599 241.188,74.035 237.689 C 73.702 237.235,72.469 235.586,71.296 234.026 C 63.284 223.370,56.991 209.150,55.100 197.426 C 54.325 192.620,54.210 191.734,53.982 188.796 C 53.475 182.256,54.228 169.871,55.133 169.871 C 55.276 169.871,55.325 169.693,55.241 169.474 C 54.975 168.780,57.273 159.868,58.458 157.002 C 61.520 149.591,64.389 144.130,65.216 144.143 C 67.059 144.170,67.525 145.537,67.525 150.928 C 67.525 158.031,67.707 158.281,73.002 158.460 C 78.697 158.652,78.554 158.385,78.666 169.070 C 78.763 178.376,78.862 178.965,80.438 179.713 C 81.927 180.420,91.663 180.350,92.506 179.627 C 94.235 178.142,94.139 179.579,94.235 153.928 L 94.322 130.356 95.044 129.002 C 95.825 127.538,96.698 126.264,97.653 125.194 C 97.986 124.821,98.736 123.866,99.319 123.072 C 99.902 122.278,100.753 121.207,101.212 120.693 C 101.670 120.179,103.013 118.531,104.196 117.033 C 109.439 110.388,109.496 110.383,114.081 116.082 C 115.871 118.307,118.763 121.900,120.508 124.067 L 123.681 128.007 126.110 125.758 C 131.862 120.432,139.869 116.119,147.906 114.017 C 154.617 112.262,154.178 112.281,185.501 112.326 L 214.302 112.368 214.515 110.461 C 215.863 98.392,228.623 90.512,239.667 94.929 M88.418 102.585 C 88.418 102.919,88.192 103.125,87.828 103.125 C 87.272 103.125,87.267 103.095,87.752 102.603 C 88.406 101.938,88.418 101.938,88.418 102.585 M317.335 126.748 C 317.335 126.806,317.145 126.781,316.912 126.692 C 316.319 126.465,315.997 127.112,316.438 127.644 C 316.886 128.184,316.395 128.251,315.499 127.771 C 314.782 127.388,314.763 127.056,315.414 126.295 C 315.865 125.769,317.335 126.115,317.335 126.748 M337.320 127.524 C 337.320 127.755,335.962 128.057,335.125 128.012 C 334.619 127.985,334.442 127.733,334.728 127.447 C 334.948 127.227,337.320 127.297,337.320 127.524 M317.941 128.993 C 317.941 129.599,317.790 129.902,317.487 129.902 C 317.028 129.902,316.838 128.683,317.234 128.287 C 317.669 127.853,317.941 128.125,317.941 128.993 M337.269 129.914 C 337.209 130.487,337.343 130.942,337.625 131.120 C 337.874 131.278,337.927 131.408,337.743 131.411 C 336.987 131.421,335.896 130.046,336.234 129.509 C 336.778 128.647,337.378 128.881,337.269 129.914 M315.039 130.577 C 315.198 131.032,315.245 131.487,315.143 131.589 C 314.898 131.835,312.793 131.065,312.793 130.729 C 312.793 130.584,312.521 130.553,312.188 130.659 C 311.847 130.767,311.582 130.713,311.582 130.536 C 311.582 130.171,313.273 129.618,314.150 129.696 C 314.503 129.728,314.868 130.090,315.039 130.577 M59.951 139.517 C 60.311 139.904,60.431 140.241,60.249 140.353 C 60.082 140.457,60.032 140.683,60.139 140.856 C 60.369 141.228,59.099 140.892,58.516 140.425 C 58.127 140.114,58.005 139.220,58.310 138.915 C 58.625 138.599,59.340 138.862,59.951 139.517 M182.450 142.724 C 182.063 143.007,181.999 143.199,182.240 143.348 C 182.701 143.633,182.690 146.334,182.226 146.798 C 181.569 147.455,182.412 147.802,184.433 147.707 C 186.462 147.611,186.872 147.251,186.369 146.008 C 186.191 145.568,186.124 145.594,185.892 146.197 C 185.572 147.026,183.649 147.074,183.649 146.253 C 183.649 145.974,183.870 145.837,184.222 145.898 C 184.910 146.016,185.295 145.489,185.091 144.708 C 184.979 144.279,184.764 144.184,184.220 144.320 C 183.683 144.455,183.497 144.377,183.497 144.015 C 183.497 143.305,185.477 143.342,185.766 144.058 C 185.952 144.517,186.018 144.488,186.268 143.838 C 186.786 142.491,183.914 141.654,182.450 142.724 M197.058 142.559 C 196.673 142.634,196.618 143.000,196.749 144.633 C 196.870 146.134,196.805 146.683,196.486 146.889 C 195.882 147.278,196.676 147.756,197.938 147.762 C 199.072 147.768,199.589 147.195,198.668 146.954 C 197.738 146.711,197.891 146.054,198.926 145.847 C 200.142 145.604,200.955 144.353,200.518 143.396 C 200.202 142.702,198.473 142.284,197.058 142.559 M218.032 142.849 C 217.070 143.628,217.357 144.945,218.551 145.230 C 220.062 145.591,220.521 145.941,220.119 146.425 C 219.651 146.988,218.796 146.978,218.319 146.404 C 217.770 145.742,217.411 145.848,217.411 146.673 C 217.411 148.033,220.962 147.997,221.486 146.632 C 221.730 145.995,220.552 144.785,219.396 144.486 C 218.887 144.354,218.471 144.050,218.471 143.811 C 218.471 143.190,219.668 143.103,220.248 143.682 C 220.776 144.211,221.347 144.052,221.347 143.376 C 221.347 142.422,219.017 142.051,218.032 142.849 M225.039 142.786 C 223.864 143.623,224.240 144.771,225.889 145.378 C 227.277 145.889,227.693 146.614,226.707 146.804 C 226.408 146.861,225.814 146.680,225.388 146.401 C 224.541 145.846,223.857 146.163,224.166 146.968 C 224.398 147.573,226.835 147.930,227.672 147.483 C 228.850 146.852,228.324 144.948,226.884 144.636 C 225.739 144.387,225.164 143.967,225.414 143.561 C 225.742 143.031,226.652 143.167,227.259 143.838 C 227.761 144.392,228.303 144.231,228.303 143.528 C 228.303 142.561,226.068 142.053,225.039 142.786 M130.330 143.232 C 128.262 144.256,124.366 150.644,124.924 152.097 C 125.020 152.346,124.953 152.640,124.775 152.750 C 124.597 152.860,124.453 153.112,124.456 153.311 C 124.459 153.528,124.578 153.490,124.754 153.217 C 125.128 152.638,125.092 152.093,125.161 159.273 C 125.226 165.985,125.342 166.512,126.894 167.155 C 128.147 167.674,130.957 166.587,129.958 165.970 C 129.669 165.791,130.011 165.249,131.241 163.938 C 132.164 162.954,132.860 161.987,132.788 161.787 C 132.707 161.562,132.838 161.493,133.131 161.606 C 133.513 161.752,133.561 161.647,133.375 161.063 C 133.187 160.469,133.222 160.398,133.567 160.668 C 133.891 160.922,134.193 160.798,134.866 160.136 L 135.744 159.273 134.791 159.273 C 133.832 159.273,133.513 159.679,134.217 160.002 C 134.425 160.098,134.301 160.104,133.941 160.016 C 133.445 159.894,132.954 160.205,131.904 161.306 C 130.543 162.733,130.521 162.743,130.514 161.923 C 130.510 161.465,130.337 161.085,130.129 161.078 C 129.921 161.071,130.125 160.863,130.583 160.614 C 131.041 160.366,131.416 159.954,131.416 159.700 C 131.416 159.446,131.552 159.322,131.718 159.425 C 132.376 159.831,132.013 157.748,131.322 157.147 C 130.733 156.635,130.632 156.280,130.687 154.911 C 130.742 153.517,130.658 153.234,130.099 152.940 L 129.447 152.596 130.128 152.727 C 130.624 152.822,130.984 152.612,131.451 151.957 C 131.804 151.461,132.451 150.913,132.889 150.738 C 133.345 150.556,133.524 150.360,133.308 150.279 C 133.100 150.202,132.934 149.912,132.939 149.634 C 132.947 149.179,132.978 149.181,133.257 149.659 C 133.426 149.951,133.893 150.189,134.293 150.189 C 134.757 150.189,135.517 150.693,136.388 151.576 C 137.668 152.874,138.380 153.092,138.380 152.187 C 138.380 151.570,137.259 150.704,136.809 150.975 C 136.488 151.168,136.484 151.124,136.788 150.749 C 136.994 150.494,137.074 150.195,136.964 150.086 C 136.855 149.976,136.916 149.886,137.100 149.886 C 137.285 149.886,137.526 150.032,137.636 150.210 C 137.746 150.388,138.033 150.457,138.275 150.365 C 138.517 150.272,138.637 150.321,138.542 150.475 C 138.448 150.628,138.509 150.839,138.678 150.943 C 138.960 151.117,139.121 150.708,139.014 150.091 C 138.990 149.954,139.090 149.915,139.237 150.006 C 139.383 150.097,139.830 149.821,140.229 149.393 C 141.547 147.981,142.538 147.467,144.886 146.982 L 147.208 146.502 149.130 147.420 C 151.077 148.350,152.612 150.002,152.612 151.168 C 152.612 151.462,152.748 151.703,152.914 151.703 C 153.081 151.703,153.217 151.355,153.217 150.928 C 153.217 150.489,153.348 150.235,153.520 150.341 C 154.306 150.826,153.869 143.911,153.074 143.285 C 152.202 142.600,148.482 142.377,147.418 142.947 C 146.966 143.189,146.844 143.190,146.991 142.952 C 147.422 142.255,131.774 142.517,130.330 143.232 M188.948 142.803 C 188.948 142.903,189.288 143.391,189.705 143.886 C 190.643 145.000,190.642 145.084,189.683 146.223 C 188.847 147.217,188.921 147.767,189.890 147.767 C 190.290 147.767,190.602 147.456,190.815 146.845 C 191.195 145.754,191.785 145.814,191.920 146.957 C 191.994 147.581,192.181 147.767,192.735 147.767 C 193.822 147.767,193.948 147.206,193.069 146.287 C 192.084 145.260,192.075 144.733,193.026 143.839 C 193.884 143.034,193.778 142.619,192.715 142.619 C 192.178 142.619,191.976 142.785,191.976 143.225 C 191.976 143.577,191.774 143.830,191.493 143.830 C 191.228 143.830,190.939 143.558,190.852 143.225 C 190.706 142.667,188.948 142.277,188.948 142.803 M203.041 142.901 C 202.945 143.056,203.005 143.269,203.174 143.373 C 203.596 143.634,203.565 146.655,203.136 147.084 C 202.724 147.495,204.089 147.947,204.855 147.654 C 205.271 147.494,205.270 147.398,204.839 146.741 C 204.553 146.305,204.476 145.933,204.650 145.826 C 205.103 145.545,205.821 145.929,206.348 146.732 C 206.860 147.514,207.721 147.724,207.721 147.067 C 207.721 146.849,207.467 146.396,207.155 146.062 C 206.665 145.536,206.645 145.379,207.004 144.887 C 207.588 144.089,207.519 143.300,206.833 142.933 C 206.104 142.543,203.277 142.519,203.041 142.901 M210.371 144.583 C 210.473 145.849,210.404 146.696,210.177 146.970 C 209.694 147.552,210.336 147.767,212.556 147.767 C 214.023 147.767,214.337 147.673,214.462 147.195 C 214.724 146.192,214.209 145.740,213.518 146.365 C 212.824 146.993,211.506 146.919,211.506 146.253 C 211.506 145.961,211.741 145.831,212.161 145.889 C 212.977 146.001,213.246 145.594,213.001 144.617 C 212.838 143.968,212.732 143.911,212.248 144.213 C 211.637 144.595,211.172 144.371,211.494 143.851 C 211.810 143.340,213.218 143.475,213.647 144.058 C 214.018 144.562,214.047 144.562,214.242 144.058 C 214.673 142.946,214.200 142.619,212.156 142.619 L 210.214 142.619 210.371 144.583 M199.768 144.229 C 199.605 144.722,198.341 144.867,197.921 144.441 C 197.382 143.894,198.543 143.153,199.303 143.560 C 199.623 143.731,199.832 144.033,199.768 144.229 M206.144 144.096 C 206.020 144.751,204.391 144.959,204.391 144.320 C 204.391 143.760,205.261 143.229,205.825 143.446 C 206.052 143.533,206.195 143.825,206.144 144.096 M33.460 149.584 C 32.889 150.214,32.400 150.375,32.400 149.933 C 32.400 149.792,32.706 149.528,33.081 149.348 C 34.044 148.883,34.075 148.903,33.460 149.584 M131.581 152.547 C 131.273 152.855,131.413 153.255,131.755 153.043 C 131.941 152.928,133.134 152.853,134.404 152.877 C 135.964 152.906,136.570 152.827,136.270 152.632 C 135.806 152.330,131.869 152.259,131.581 152.547 M153.222 153.293 C 153.219 153.751,153.354 154.126,153.520 154.126 C 153.903 154.126,153.903 153.507,153.520 152.914 C 153.291 152.561,153.226 152.644,153.222 153.293 M133.838 154.883 C 134.045 155.132,134.351 155.337,134.518 155.337 C 134.687 155.337,134.654 155.136,134.444 154.883 C 134.236 154.633,133.930 154.428,133.764 154.428 C 133.595 154.428,133.628 154.629,133.838 154.883 M135.201 154.731 C 135.304 154.898,135.576 155.034,135.806 155.034 C 136.036 155.034,136.309 154.898,136.412 154.731 C 136.518 154.559,136.258 154.428,135.806 154.428 C 135.355 154.428,135.094 154.559,135.201 154.731 M136.866 154.773 C 136.866 154.917,136.991 155.034,137.144 155.034 C 137.297 155.034,137.638 155.117,137.901 155.218 C 138.164 155.319,138.380 155.267,138.380 155.102 C 138.380 154.937,138.039 154.737,137.623 154.657 C 137.207 154.578,136.866 154.630,136.866 154.773 M126.571 157.305 C 126.357 157.563,126.114 157.706,126.030 157.623 C 125.947 157.539,126.054 157.260,126.268 157.002 C 126.482 156.744,126.725 156.602,126.808 156.685 C 126.892 156.768,126.785 157.047,126.571 157.305 M152.068 160.371 C 151.751 160.711,151.756 160.787,152.099 160.787 C 152.329 160.787,152.764 161.060,153.066 161.393 C 153.765 162.165,154.113 162.166,153.911 161.396 C 153.825 161.065,153.643 160.863,153.506 160.947 C 153.370 161.031,153.078 160.843,152.858 160.528 C 152.520 160.045,152.396 160.021,152.068 160.371 M139.793 160.989 C 139.466 161.316,139.560 161.619,140.045 161.805 C 140.668 162.044,141.408 161.721,141.408 161.209 C 141.408 160.781,140.170 160.612,139.793 160.989 M138.507 161.796 C 138.604 162.101,138.683 162.476,138.683 162.629 C 138.683 162.782,138.819 162.907,138.986 162.907 C 139.424 162.907,139.358 162.502,138.809 161.829 C 138.371 161.291,138.346 161.289,138.507 161.796 M143.340 163.347 C 143.131 163.891,143.470 164.493,143.851 164.257 C 144.235 164.019,144.210 162.907,143.821 162.907 C 143.649 162.907,143.433 163.105,143.340 163.347 M140.651 163.815 C 140.412 164.202,141.415 164.202,142.014 163.815 C 142.369 163.586,142.290 163.521,141.653 163.517 C 141.205 163.515,140.754 163.649,140.651 163.815 M339.580 164.820 C 340.005 165.245,339.677 166.238,339.112 166.238 C 338.641 166.238,338.250 164.911,338.645 164.653 C 339.099 164.356,339.119 164.360,339.580 164.820 M143.229 165.275 C 143.224 165.755,142.659 166.351,141.958 166.616 C 141.677 166.722,141.287 167.110,141.090 167.477 L 140.732 168.146 141.600 167.503 C 143.664 165.974,143.822 165.796,143.524 165.329 C 143.310 164.994,143.233 164.980,143.229 165.275 M138.171 170.250 C 137.394 171.053,136.856 171.935,136.739 172.597 L 136.550 173.656 137.166 172.433 C 137.505 171.760,138.189 170.763,138.687 170.219 C 139.512 169.315,139.741 168.963,139.503 168.963 C 139.454 168.963,138.855 169.542,138.171 170.250 M152.914 173.473 C 152.257 173.656,152.159 173.851,152.171 174.957 C 152.245 181.780,152.344 183.814,152.595 183.659 C 152.925 183.455,152.821 176.885,152.464 175.380 C 152.259 174.516,152.312 174.356,152.852 174.215 C 153.196 174.125,153.551 173.860,153.641 173.626 C 153.731 173.393,153.774 173.216,153.738 173.232 C 153.701 173.249,153.331 173.357,152.914 173.473 M135.966 174.542 C 135.795 174.993,135.655 175.755,135.655 176.236 C 135.655 177.366,135.065 178.653,134.546 178.653 C 134.323 178.653,134.141 178.784,134.141 178.946 C 134.141 179.107,133.766 179.442,133.308 179.691 C 132.707 180.016,132.624 180.146,133.010 180.154 C 134.225 180.182,135.657 178.314,136.118 176.100 C 136.574 173.907,136.499 173.140,135.966 174.542 M235.911 177.132 C 233.907 177.605,234.288 179.574,236.499 180.170 C 237.977 180.568,238.144 181.378,236.748 181.378 C 236.213 181.378,235.637 181.159,235.431 180.877 C 234.999 180.287,234.368 180.573,234.368 181.360 C 234.368 182.320,237.274 182.667,238.131 181.810 C 239.004 180.937,238.235 179.258,236.962 179.258 C 236.224 179.258,235.443 178.587,235.784 178.246 C 236.092 177.938,237.338 178.011,237.547 178.350 C 237.886 178.898,238.304 178.666,238.304 177.930 C 238.304 177.141,237.297 176.805,235.911 177.132 M270.704 177.131 C 268.925 177.538,268.481 181.118,270.103 181.986 C 270.946 182.437,272.999 182.350,273.418 181.845 C 273.941 181.215,273.539 180.692,272.825 181.074 C 271.351 181.863,270.098 181.237,270.098 179.712 C 270.098 178.111,271.412 177.498,272.580 178.555 C 273.234 179.147,273.854 178.754,273.681 177.857 C 273.561 177.232,271.964 176.843,270.704 177.131 M241.247 177.325 C 241.145 177.427,241.243 177.802,241.465 178.157 C 241.923 178.892,241.829 180.930,241.308 181.558 C 240.809 182.160,241.460 182.336,243.784 182.226 C 245.385 182.150,245.735 182.038,245.824 181.573 C 245.994 180.681,245.312 180.204,244.820 180.870 C 244.324 181.542,242.695 181.467,242.695 180.772 C 242.695 180.452,242.947 180.348,243.550 180.418 C 244.328 180.510,244.396 180.442,244.307 179.665 C 244.232 179.015,244.048 178.811,243.532 178.808 C 242.462 178.802,242.587 178.209,243.679 178.103 C 244.410 178.033,244.663 178.130,244.663 178.482 C 244.663 178.742,244.868 178.955,245.117 178.955 C 245.420 178.955,245.572 178.653,245.572 178.047 L 245.572 177.139 243.502 177.139 C 242.364 177.139,241.350 177.222,241.247 177.325 M248.158 177.420 C 248.062 177.575,248.123 177.788,248.292 177.892 C 248.461 177.997,248.600 178.816,248.600 179.712 C 248.600 180.609,248.461 181.428,248.292 181.532 C 247.775 181.851,248.283 182.286,249.173 182.286 C 250.253 182.286,250.466 182.054,250.028 181.353 C 249.263 180.128,250.283 180.013,251.461 181.191 C 252.635 182.365,253.142 182.558,253.142 181.832 C 253.142 181.582,253.002 181.378,252.832 181.378 C 252.286 181.378,251.775 179.898,252.181 179.492 C 252.698 178.975,252.616 178.213,251.982 177.640 C 251.377 177.092,248.465 176.925,248.158 177.420 M254.820 177.420 C 254.724 177.575,254.781 177.786,254.945 177.887 C 255.248 178.075,255.755 179.080,256.589 181.151 C 257.257 182.807,257.701 182.568,258.970 179.872 C 260.329 176.986,260.313 177.139,259.248 177.139 C 258.207 177.139,257.884 177.408,258.310 177.921 C 258.539 178.197,258.469 178.617,258.062 179.411 C 257.353 180.792,256.617 180.212,256.667 178.311 C 256.697 177.146,255.381 176.512,254.820 177.420 M262.738 177.332 C 262.423 177.648,262.823 178.047,263.455 178.047 C 264.416 178.047,264.326 181.295,263.361 181.432 C 262.986 181.486,262.714 181.665,262.755 181.832 C 262.868 182.283,265.934 182.214,266.086 181.756 C 266.160 181.534,265.952 181.378,265.582 181.378 C 265.019 181.378,264.951 181.198,264.951 179.712 C 264.951 178.249,265.024 178.047,265.556 178.047 C 265.893 178.047,266.162 177.845,266.162 177.593 C 266.162 177.126,263.172 176.899,262.738 177.332 M276.306 179.724 L 276.306 182.310 278.422 182.222 C 280.204 182.149,280.556 182.046,280.646 181.573 C 280.807 180.730,280.131 180.180,279.754 180.848 C 279.330 181.600,277.668 181.573,277.668 180.814 C 277.668 180.377,277.837 180.283,278.422 180.395 C 278.933 180.492,279.236 180.380,279.364 180.046 C 279.624 179.367,278.983 178.682,278.263 178.871 C 277.853 178.978,277.668 178.874,277.668 178.536 C 277.668 177.889,279.432 177.858,279.679 178.501 C 279.974 179.271,280.394 179.004,280.394 178.047 L 280.394 177.139 278.350 177.139 L 276.306 177.139 276.306 179.724 M251.463 178.329 C 251.803 178.879,250.340 179.615,249.860 179.135 C 249.627 178.902,249.529 178.561,249.641 178.379 C 249.891 177.974,251.222 177.938,251.463 178.329 M359.976 204.090 C 359.920 204.253,359.702 204.261,359.456 204.109 C 359.192 203.945,359.115 203.636,359.250 203.286 C 359.487 202.670,360.195 203.454,359.976 204.090 M45.874 222.109 C 45.874 222.602,45.670 222.710,44.739 222.710 C 44.005 222.710,43.603 222.570,43.603 222.314 C 43.603 222.096,43.724 221.992,43.872 222.083 C 44.019 222.175,44.314 222.040,44.525 221.785 C 45.042 221.162,45.874 221.362,45.874 222.109 M350.643 231.945 C 350.643 232.279,350.780 232.551,350.946 232.551 C 351.641 232.551,351.178 233.095,350.341 233.263 C 349.808 233.369,349.432 233.635,349.432 233.906 C 349.432 234.160,349.398 234.470,349.357 234.595 C 349.315 234.720,350.613 234.900,352.240 234.996 C 355.362 235.179,356.174 235.510,355.499 236.323 C 355.084 236.823,348.125 237.026,347.442 236.559 C 346.992 236.250,346.663 235.276,347.010 235.276 C 347.166 235.276,347.210 235.058,347.108 234.792 C 347.005 234.525,347.112 234.186,347.344 234.039 C 347.682 233.825,347.661 233.771,347.237 233.767 C 346.945 233.764,346.430 234.040,346.090 234.379 C 345.751 234.718,345.319 234.900,345.130 234.783 C 344.911 234.648,345.025 234.483,345.444 234.328 C 346.158 234.064,346.334 233.487,345.723 233.414 C 345.515 233.389,345.958 233.282,346.707 233.176 C 348.240 232.960,348.788 233.090,348.178 233.526 C 347.870 233.746,347.906 233.774,348.322 233.639 C 348.627 233.540,349.016 233.460,349.187 233.460 C 349.367 233.460,349.418 233.142,349.308 232.702 C 349.168 232.144,349.238 231.945,349.578 231.945 C 349.831 231.945,350.038 231.809,350.038 231.643 C 350.038 231.476,350.174 231.340,350.341 231.340 C 350.507 231.340,350.643 231.612,350.643 231.945 M344.196 235.651 C 344.124 236.028,344.062 235.791,344.058 235.125 C 344.055 234.459,344.114 234.151,344.190 234.440 C 344.266 234.730,344.268 235.275,344.196 235.651 M127.176 234.997 C 120.153 238.173,121.213 248.179,128.744 249.794 C 133.903 250.900,138.477 246.703,137.993 241.306 C 137.528 236.135,131.909 232.858,127.176 234.997 M250.463 235.128 C 242.826 238.683,245.321 249.885,253.747 249.876 C 260.891 249.868,264.221 241.668,259.157 236.554 C 256.932 234.307,253.452 233.736,250.463 235.128 M342.298 235.563 C 343.305 236.401,342.099 236.790,338.498 236.790 C 334.990 236.790,334.292 236.658,334.292 235.991 C 334.292 234.938,341.108 234.574,342.298 235.563 M57.476 237.169 C 57.624 237.949,56.434 237.860,56.229 237.075 C 56.097 236.571,56.191 236.470,56.720 236.545 C 57.080 236.597,57.420 236.877,57.476 237.169 M60.257 238.680 C 60.257 238.806,60.470 238.910,60.729 238.910 C 60.989 238.910,61.117 239.046,61.014 239.213 C 60.911 239.379,60.392 239.505,59.861 239.492 C 59.330 239.478,59.065 239.399,59.273 239.315 C 59.867 239.076,59.716 238.607,59.046 238.607 C 58.713 238.607,58.441 238.743,58.441 238.910 C 58.441 239.076,58.202 239.208,57.911 239.203 C 57.440 239.195,57.448 239.145,57.986 238.761 C 58.319 238.524,58.728 238.207,58.895 238.059 C 59.208 237.779,60.257 238.257,60.257 238.680 M64.747 239.395 C 64.309 239.833,64.280 239.805,64.421 239.068 C 64.531 238.492,64.668 238.355,64.901 238.588 C 65.134 238.821,65.090 239.051,64.747 239.395 M62.377 239.480 C 62.377 239.787,61.120 240.176,60.885 239.941 C 60.689 239.745,61.492 239.224,61.998 239.217 C 62.207 239.215,62.377 239.333,62.377 239.480 M370.215 249.598 C 371.039 250.425,369.770 250.871,366.596 250.871 C 363.071 250.871,362.046 250.491,363.210 249.618 C 363.863 249.129,369.730 249.112,370.215 249.598 " stroke="none" fill="#f9fbfb" fill-rule="evenodd"></path><path id="path3" d="M241.725 42.158 C 241.053 43.026,240.986 43.405,241.621 42.751 C 241.995 42.365,242.239 41.987,242.163 41.911 C 242.087 41.834,241.890 41.946,241.725 42.158 M244.729 47.693 C 244.183 48.082,243.870 48.483,244.033 48.585 C 244.197 48.686,244.780 48.360,245.330 47.860 C 246.510 46.787,246.145 46.686,244.729 47.693 M142.689 79.088 C 142.876 79.649,143.528 79.742,143.528 79.208 C 143.528 78.944,143.312 78.728,143.048 78.728 C 142.785 78.728,142.623 78.890,142.689 79.088 M141.105 80.513 C 141.105 80.828,141.284 81.155,141.503 81.238 C 142.162 81.491,143.528 81.109,143.528 80.671 C 143.528 80.431,143.339 80.334,143.073 80.436 C 142.824 80.531,142.619 80.459,142.619 80.275 C 142.619 80.090,142.279 79.939,141.862 79.939 C 141.321 79.939,141.105 80.103,141.105 80.513 M310.901 90.865 C 310.137 91.310,310.249 91.749,311.128 91.749 C 311.544 91.749,311.885 91.612,311.885 91.446 C 311.885 91.279,312.192 91.133,312.566 91.122 C 313.216 91.101,313.220 91.089,312.642 90.840 C 311.835 90.494,311.531 90.498,310.901 90.865 M309.160 93.111 C 309.160 93.361,309.296 93.565,309.463 93.565 C 309.629 93.565,309.765 93.361,309.765 93.111 C 309.765 92.861,309.629 92.657,309.463 92.657 C 309.296 92.657,309.160 92.861,309.160 93.111 M312.410 93.746 C 312.311 93.846,312.304 94.122,312.395 94.360 C 312.571 94.819,313.399 94.383,313.399 93.831 C 313.399 93.531,312.687 93.470,312.410 93.746 M223.571 96.284 C 220.716 97.921,216.186 102.887,216.203 104.361 C 216.204 104.502,216.742 103.773,217.397 102.740 C 218.968 100.264,221.746 97.564,223.956 96.365 C 224.936 95.833,225.602 95.396,225.435 95.393 C 225.269 95.390,224.430 95.791,223.571 96.284 M243.301 96.944 C 245.356 98.518,247.494 100.760,248.512 102.410 C 249.769 104.447,250.171 104.749,249.149 102.888 C 248.254 101.259,244.725 97.518,243.404 96.799 L 242.392 96.248 243.301 96.944 M87.752 102.603 C 87.267 103.095,87.272 103.125,87.828 103.125 C 88.192 103.125,88.418 102.919,88.418 102.585 C 88.418 101.938,88.406 101.938,87.752 102.603 M250.891 107.494 C 250.982 107.911,251.135 109.107,251.232 110.152 C 251.330 111.197,251.503 112.111,251.618 112.182 C 251.946 112.385,251.600 109.326,251.140 107.966 C 250.912 107.290,250.800 107.078,250.891 107.494 M214.459 111.279 C 214.463 111.945,214.525 112.182,214.597 111.806 C 214.670 111.429,214.667 110.884,214.591 110.595 C 214.515 110.305,214.456 110.613,214.459 111.279 M108.969 112.013 C 108.007 112.385,107.161 113.275,104.196 117.033 C 103.013 118.531,101.670 120.179,101.212 120.693 C 100.753 121.207,99.902 122.278,99.319 123.072 C 98.736 123.866,97.986 124.821,97.653 125.194 C 96.698 126.264,95.825 127.538,95.044 129.002 L 94.322 130.356 94.235 153.928 C 94.139 179.579,94.235 178.142,92.506 179.627 C 91.663 180.350,81.927 180.420,80.438 179.713 C 78.862 178.965,78.763 178.376,78.666 169.070 C 78.554 158.385,78.697 158.652,73.002 158.460 C 67.707 158.281,67.525 158.031,67.525 150.928 C 67.525 145.537,67.059 144.170,65.216 144.143 C 64.389 144.130,61.520 149.591,58.458 157.002 C 57.273 159.868,54.975 168.780,55.241 169.474 C 55.325 169.693,55.276 169.871,55.133 169.871 C 54.228 169.871,53.475 182.256,53.982 188.796 C 54.210 191.734,54.325 192.620,55.100 197.426 C 56.991 209.150,63.284 223.370,71.296 234.026 C 72.469 235.586,73.702 237.235,74.035 237.689 C 76.599 241.188,82.076 246.724,86.026 249.811 C 92.255 254.678,93.863 255.305,101.287 255.759 L 104.921 255.981 101.140 256.532 C 95.047 257.420,93.240 258.213,95.073 259.194 C 95.893 259.633,99.998 260.419,101.238 260.374 C 101.764 260.355,100.969 260.150,99.470 259.917 C 95.119 259.242,93.824 258.630,95.458 258.020 C 97.575 257.230,106.884 256.141,115.443 255.682 C 117.566 255.569,119.304 255.412,119.304 255.335 C 119.304 255.258,118.632 254.460,117.812 253.562 C 115.621 251.166,114.396 248.840,113.724 245.803 L 113.541 244.974 100.904 244.971 C 88.541 244.968,87.466 244.902,84.887 243.988 C 74.900 240.447,73.147 228.605,80.196 212.290 C 80.874 210.722,81.344 209.291,81.241 209.110 C 81.138 208.929,81.165 208.883,81.302 209.006 C 81.514 209.199,82.492 208.165,82.518 207.721 C 82.527 207.558,84.755 203.154,89.988 192.955 C 91.805 189.413,93.196 186.360,93.079 186.171 C 92.962 185.981,92.996 185.907,93.155 186.005 C 93.530 186.236,97.279 178.724,97.008 178.286 C 96.895 178.103,96.929 178.031,97.083 178.127 C 97.375 178.307,97.848 177.400,111.649 150.189 C 122.652 128.495,122.736 128.373,130.961 122.254 C 133.610 120.283,134.183 119.781,132.778 120.662 C 130.375 122.169,128.383 123.696,126.135 125.753 L 123.677 128.003 120.506 124.065 C 118.762 121.899,115.886 118.326,114.114 116.124 C 110.944 112.183,110.156 111.554,108.969 112.013 M159.198 112.250 C 159.572 112.322,160.185 112.322,160.560 112.250 C 160.935 112.178,160.628 112.119,159.879 112.119 C 159.129 112.119,158.823 112.178,159.198 112.250 M156.018 112.548 C 156.310 112.624,156.787 112.624,157.078 112.548 C 157.369 112.472,157.131 112.409,156.548 112.409 C 155.965 112.409,155.727 112.472,156.018 112.548 M139.591 116.881 C 139.008 117.200,138.668 117.461,138.834 117.461 C 139.001 117.461,139.614 117.200,140.197 116.881 C 140.780 116.562,141.120 116.301,140.954 116.301 C 140.787 116.301,140.174 116.562,139.591 116.881 M136.277 118.552 C 135.203 119.131,134.181 119.753,134.006 119.936 C 133.665 120.290,137.729 118.171,138.213 117.742 C 138.726 117.288,138.266 117.480,136.277 118.552 M315.414 126.295 C 314.763 127.056,314.782 127.388,315.499 127.771 C 316.395 128.251,316.886 128.184,316.438 127.644 C 315.997 127.112,316.319 126.465,316.912 126.692 C 317.554 126.939,317.419 126.696,316.625 126.175 C 315.973 125.748,315.875 125.757,315.414 126.295 M296.947 126.773 C 296.836 126.884,296.743 127.258,296.740 127.605 C 296.736 128.130,296.683 128.160,296.425 127.782 C 296.212 127.471,296.135 144.551,296.180 181.983 C 296.252 240.960,296.336 237.898,294.578 240.552 C 291.990 244.459,290.341 244.942,279.252 245.039 L 270.388 245.117 270.094 246.177 C 269.932 246.760,269.798 247.410,269.797 247.621 C 269.794 248.326,267.983 251.458,266.719 252.945 C 265.575 254.291,265.482 255.414,266.570 254.742 C 266.926 254.522,267.996 254.552,279.637 255.114 C 303.320 256.258,314.976 257.843,309.690 259.202 C 307.797 259.689,307.624 259.829,309.152 259.640 C 310.815 259.433,311.802 258.682,311.199 258.079 C 310.553 257.433,305.086 256.478,297.956 255.767 C 297.373 255.708,298.123 255.631,299.621 255.595 C 308.390 255.383,310.366 254.908,314.384 252.047 L 315.823 251.022 336.842 251.022 C 357.211 251.022,358.819 250.974,358.819 250.373 C 358.819 250.212,358.570 250.225,358.233 250.406 C 357.267 250.923,312.053 250.833,311.622 250.313 C 310.979 249.538,311.796 249.508,335.024 249.434 L 358.365 249.361 338.304 249.281 C 327.271 249.237,318.244 249.124,318.244 249.030 C 318.244 248.936,318.414 248.680,318.622 248.462 C 318.830 248.244,319.478 247.478,320.061 246.760 C 320.643 246.043,321.545 245.005,322.065 244.454 L 323.009 243.452 314.646 243.447 C 306.373 243.443,305.053 243.313,305.924 242.590 C 306.697 241.949,343.841 242.251,343.792 242.898 C 343.769 243.211,343.913 243.343,344.171 243.244 C 344.695 243.043,344.692 242.994,344.112 242.414 C 343.699 242.001,342.339 241.938,333.816 241.938 C 328.416 241.938,323.997 241.829,323.997 241.696 C 323.997 241.562,324.153 241.297,324.344 241.107 C 324.535 240.916,325.130 239.901,325.668 238.851 C 326.525 237.176,326.763 236.930,327.609 236.846 C 328.754 236.731,329.107 236.071,328.424 235.317 C 327.797 234.624,327.781 234.741,328.816 232.497 C 330.212 229.469,330.856 227.577,332.445 221.837 C 334.672 213.792,335.482 203.182,334.550 194.247 C 334.359 192.415,334.177 190.575,334.146 190.159 C 334.114 189.743,334.009 189.198,333.912 188.948 C 333.815 188.698,333.653 187.785,333.551 186.920 C 333.370 185.368,332.824 183.063,331.605 178.698 C 330.824 175.902,327.191 168.462,326.112 167.449 C 326.024 167.366,325.682 166.902,325.353 166.419 C 323.735 164.047,322.799 162.811,321.272 161.033 C 320.356 159.967,318.392 157.636,316.907 155.853 C 315.423 154.070,314.085 152.612,313.935 152.612 C 312.688 152.612,311.582 154.371,311.582 156.357 C 311.582 157.912,311.336 158.738,310.945 158.497 C 310.796 158.405,310.674 156.025,310.674 153.209 C 310.674 147.845,310.498 147.036,308.957 145.298 C 308.713 145.022,307.854 143.525,307.049 141.970 C 305.735 139.432,305.482 139.122,304.576 138.937 C 302.656 138.544,302.009 137.373,301.820 133.958 C 301.645 130.781,301.110 129.335,299.759 128.388 C 299.402 128.138,298.749 127.627,298.306 127.252 C 297.444 126.522,297.261 126.458,296.947 126.773 M334.728 127.447 C 334.442 127.733,334.619 127.985,335.125 128.012 C 335.962 128.057,337.320 127.755,337.320 127.524 C 337.320 127.297,334.948 127.227,334.728 127.447 M317.234 128.287 C 316.838 128.683,317.028 129.902,317.487 129.902 C 317.790 129.902,317.941 129.599,317.941 128.993 C 317.941 128.125,317.669 127.853,317.234 128.287 M336.234 129.509 C 335.896 130.046,336.987 131.421,337.743 131.411 C 337.927 131.408,337.874 131.278,337.625 131.120 C 337.343 130.942,337.209 130.487,337.269 129.914 C 337.378 128.881,336.778 128.647,336.234 129.509 M312.566 129.932 C 312.025 130.091,311.582 130.363,311.582 130.536 C 311.582 130.713,311.847 130.767,312.188 130.659 C 312.521 130.553,312.793 130.584,312.793 130.729 C 312.793 131.065,314.898 131.835,315.143 131.589 C 316.112 130.620,314.265 129.432,312.566 129.932 M58.310 138.915 C 58.005 139.220,58.127 140.114,58.516 140.425 C 59.099 140.892,60.369 141.228,60.139 140.856 C 60.032 140.683,60.082 140.457,60.249 140.353 C 60.431 140.241,60.311 139.904,59.951 139.517 C 59.340 138.862,58.625 138.599,58.310 138.915 M139.379 142.543 C 144.888 142.604,147.131 142.726,146.988 142.957 C 146.852 143.177,147.000 143.170,147.437 142.937 C 147.795 142.745,148.902 142.618,149.896 142.653 C 150.891 142.689,151.795 142.628,151.906 142.518 C 152.016 142.407,147.485 142.348,141.837 142.387 C 131.922 142.455,131.837 142.460,139.379 142.543 M129.599 143.254 C 129.016 143.596,128.272 144.240,127.946 144.686 C 127.429 145.392,127.504 145.365,128.528 144.475 C 129.174 143.914,130.122 143.272,130.635 143.049 C 131.148 142.826,131.363 142.641,131.113 142.638 C 130.863 142.635,130.182 142.913,129.599 143.254 M153.823 147.331 C 153.823 149.385,153.715 150.461,153.520 150.341 C 153.348 150.235,153.217 150.489,153.217 150.928 C 153.217 151.355,153.072 151.703,152.894 151.703 C 152.716 151.703,152.637 151.942,152.717 152.233 C 153.004 153.271,153.208 155.797,152.957 155.193 C 152.764 154.730,152.662 154.943,152.503 156.142 C 152.168 158.666,151.477 160.573,150.519 161.620 C 150.023 162.161,149.743 162.604,149.897 162.604 C 150.050 162.604,150.398 162.263,150.671 161.847 C 150.977 161.381,151.474 161.077,151.965 161.055 C 152.464 161.033,152.568 160.969,152.241 160.883 C 151.825 160.774,151.794 160.665,152.087 160.350 C 152.389 160.028,152.530 160.060,152.858 160.528 C 153.078 160.843,153.375 161.028,153.518 160.940 C 153.660 160.852,153.840 161.020,153.916 161.313 C 153.993 161.607,154.071 157.861,154.091 152.990 C 154.110 148.119,154.058 144.133,153.974 144.133 C 153.891 144.133,153.823 145.572,153.823 147.331 M126.328 147.631 C 125.795 148.711,125.366 149.695,125.374 149.816 C 125.383 149.938,125.868 149.104,126.454 147.963 C 127.039 146.822,127.469 145.839,127.408 145.778 C 127.347 145.717,126.861 146.551,126.328 147.631 M33.081 149.348 C 32.706 149.528,32.400 149.792,32.400 149.933 C 32.400 150.375,32.889 150.214,33.460 149.584 C 34.075 148.903,34.044 148.883,33.081 149.348 M132.939 149.634 C 132.934 149.912,133.100 150.202,133.308 150.279 C 133.524 150.360,133.345 150.556,132.889 150.738 C 132.451 150.913,131.804 151.461,131.451 151.957 C 130.984 152.612,130.624 152.822,130.128 152.727 L 129.447 152.596 130.099 152.940 C 130.658 153.234,130.742 153.517,130.687 154.911 C 130.632 156.280,130.733 156.635,131.322 157.147 C 132.013 157.748,132.376 159.831,131.718 159.425 C 131.552 159.322,131.416 159.446,131.416 159.700 C 131.416 159.954,131.041 160.366,130.583 160.614 C 130.125 160.863,129.921 161.071,130.129 161.078 C 130.337 161.085,130.510 161.465,130.514 161.923 C 130.521 162.743,130.543 162.733,131.904 161.306 C 132.954 160.205,133.445 159.894,133.941 160.016 C 134.301 160.104,134.425 160.098,134.217 160.002 C 133.513 159.679,133.832 159.273,134.791 159.273 L 135.744 159.273 134.866 160.136 C 134.193 160.798,133.891 160.922,133.567 160.668 C 133.222 160.398,133.187 160.469,133.375 161.063 C 133.561 161.647,133.513 161.752,133.131 161.606 C 132.838 161.493,132.707 161.562,132.788 161.787 C 132.860 161.987,132.164 162.954,131.241 163.938 C 130.011 165.249,129.669 165.791,129.958 165.970 C 130.957 166.587,128.147 167.674,126.894 167.155 C 125.342 166.512,125.226 165.985,125.161 159.273 C 125.092 152.093,125.128 152.638,124.754 153.217 C 124.593 153.467,124.458 153.524,124.456 153.343 C 124.453 153.163,124.553 152.913,124.678 152.788 C 124.803 152.664,124.920 152.266,124.938 151.905 C 124.957 151.544,125.064 150.977,125.177 150.643 C 125.689 149.131,121.597 157.532,115.516 170.477 C 114.147 173.391,112.265 177.374,111.335 179.327 C 109.173 183.866,109.163 183.927,110.598 184.046 C 111.668 184.134,111.734 184.089,111.734 183.271 C 111.734 182.331,113.259 181.383,114.788 181.373 C 115.616 181.368,116.351 180.984,116.279 180.594 C 116.252 180.451,116.396 180.278,116.598 180.211 C 116.800 180.143,116.882 180.224,116.779 180.389 C 116.677 180.555,117.552 180.434,118.724 180.119 C 119.895 179.805,120.987 179.630,121.149 179.730 C 121.437 179.908,122.738 180.126,127.563 180.805 C 129.347 181.056,130.021 181.050,130.349 180.778 C 130.587 180.581,131.040 180.502,131.357 180.602 C 131.674 180.703,132.260 180.655,132.659 180.495 C 133.064 180.333,133.184 180.191,132.930 180.174 C 132.666 180.155,132.824 179.953,133.308 179.691 C 133.766 179.442,134.141 179.107,134.141 178.946 C 134.141 178.784,134.362 178.653,134.632 178.653 C 135.051 178.653,135.064 178.731,134.722 179.182 C 134.383 179.631,134.386 179.655,134.741 179.339 C 134.972 179.133,135.200 178.724,135.248 178.430 C 135.296 178.136,135.468 177.082,135.630 176.087 C 135.791 175.092,136.102 174.139,136.319 173.967 C 136.537 173.796,136.753 173.183,136.801 172.605 C 136.892 171.488,137.960 170.066,138.471 170.382 C 138.639 170.485,138.690 170.431,138.585 170.261 C 138.480 170.091,138.687 169.696,139.045 169.382 C 139.459 169.019,139.600 168.977,139.434 169.266 C 138.864 170.255,140.277 168.824,140.999 167.680 C 141.637 166.670,143.020 165.933,142.428 166.919 C 142.273 167.176,142.364 167.164,142.713 166.882 C 143.267 166.432,143.415 166.084,142.922 166.389 C 142.755 166.492,142.619 166.432,142.619 166.256 C 142.619 166.079,142.755 165.935,142.922 165.935 C 143.089 165.935,143.236 165.696,143.249 165.405 C 143.263 165.085,143.333 165.026,143.426 165.255 C 143.645 165.798,144.133 165.406,144.133 164.688 C 144.133 164.355,143.996 164.167,143.828 164.271 C 143.356 164.563,143.111 163.560,143.531 163.054 C 144.006 162.482,143.537 162.452,142.122 162.964 C 141.100 163.333,139.657 162.626,140.070 161.958 C 140.160 161.814,140.074 161.696,139.879 161.696 C 139.685 161.696,139.607 161.485,139.707 161.226 C 139.806 160.967,139.774 160.826,139.636 160.911 C 139.021 161.291,138.095 159.360,138.393 158.321 C 138.966 156.323,138.785 155.407,137.774 155.185 C 137.275 155.076,136.866 154.859,136.866 154.705 C 136.866 154.550,136.597 154.591,136.268 154.797 C 135.796 155.092,135.592 155.092,135.299 154.799 C 134.728 154.228,133.962 154.303,134.444 154.883 C 134.654 155.136,134.687 155.337,134.518 155.337 C 134.351 155.337,134.045 155.132,133.838 154.883 C 133.631 154.633,133.283 154.428,133.066 154.428 C 132.489 154.428,131.679 153.526,131.914 153.146 C 132.040 152.942,131.970 152.910,131.726 153.061 C 131.467 153.221,131.384 153.161,131.477 152.881 C 131.656 152.342,135.156 152.182,136.346 152.659 C 137.654 153.182,137.625 152.787,136.256 151.431 C 135.496 150.679,134.718 150.189,134.283 150.189 C 133.888 150.189,133.426 149.951,133.257 149.659 C 132.978 149.181,132.947 149.179,132.939 149.634 M136.964 150.086 C 137.074 150.195,136.994 150.494,136.788 150.749 C 136.484 151.125,136.488 151.168,136.813 150.973 C 137.065 150.821,137.489 150.990,137.958 151.430 L 138.702 152.129 138.630 151.193 C 138.586 150.611,138.422 150.308,138.197 150.395 C 137.998 150.471,137.746 150.388,137.636 150.210 C 137.526 150.032,137.285 149.886,137.100 149.886 C 136.916 149.886,136.855 149.976,136.964 150.086 M153.818 153.747 C 153.821 153.955,153.687 154.126,153.520 154.126 C 153.354 154.126,153.219 153.751,153.222 153.293 C 153.227 152.440,153.808 152.883,153.818 153.747 M149.944 155.965 C 150.004 156.144,150.182 156.291,150.341 156.291 C 150.499 156.291,150.677 156.144,150.737 155.965 C 150.796 155.786,150.618 155.640,150.341 155.640 C 150.063 155.640,149.885 155.786,149.944 155.965 M126.268 157.002 C 126.054 157.260,125.947 157.539,126.030 157.623 C 126.114 157.706,126.357 157.563,126.571 157.305 C 126.785 157.047,126.892 156.768,126.808 156.685 C 126.725 156.602,126.482 156.744,126.268 157.002 M139.288 162.662 C 139.288 162.797,139.152 162.907,138.986 162.907 C 138.819 162.907,138.683 162.782,138.683 162.629 C 138.683 162.476,138.604 162.101,138.507 161.796 C 138.346 161.289,138.371 161.291,138.809 161.829 C 139.073 162.153,139.288 162.527,139.288 162.662 M142.014 163.815 C 141.415 164.202,140.412 164.202,140.651 163.815 C 140.754 163.649,141.205 163.515,141.653 163.517 C 142.290 163.521,142.369 163.586,142.014 163.815 M338.645 164.653 C 338.250 164.911,338.641 166.238,339.112 166.238 C 339.677 166.238,340.005 165.245,339.580 164.820 C 339.119 164.360,339.099 164.356,338.645 164.653 M153.891 172.993 C 153.853 173.294,153.688 173.457,153.524 173.356 C 153.358 173.253,153.298 173.363,153.389 173.601 C 153.492 173.870,153.305 174.096,152.890 174.205 C 152.309 174.357,152.256 174.503,152.464 175.380 C 152.876 177.111,152.914 183.284,152.516 183.768 C 152.210 184.138,152.257 184.149,152.832 183.843 C 154.018 183.211,154.145 182.535,154.049 177.371 C 153.999 174.662,153.928 172.692,153.891 172.993 M359.250 203.286 C 359.115 203.636,359.192 203.945,359.456 204.109 C 359.996 204.444,360.169 203.979,359.769 203.267 C 359.479 202.750,359.456 202.751,359.250 203.286 M94.020 208.630 C 94.840 209.463,95.579 210.144,95.662 210.144 C 95.746 210.144,95.143 209.463,94.322 208.630 C 93.502 207.797,92.763 207.116,92.680 207.116 C 92.597 207.116,93.200 207.797,94.020 208.630 M44.525 221.785 C 44.314 222.040,44.019 222.175,43.872 222.083 C 43.724 221.992,43.603 222.096,43.603 222.314 C 43.603 222.570,44.005 222.710,44.739 222.710 C 45.670 222.710,45.874 222.602,45.874 222.109 C 45.874 221.362,45.042 221.162,44.525 221.785 M112.491 227.101 C 113.311 227.933,114.050 228.615,114.133 228.615 C 114.216 228.615,113.614 227.933,112.793 227.101 C 111.973 226.268,111.234 225.587,111.151 225.587 C 111.067 225.587,111.670 226.268,112.491 227.101 M350.038 231.643 C 350.038 231.809,349.831 231.945,349.578 231.945 C 349.238 231.945,349.168 232.144,349.308 232.702 C 349.418 233.142,349.367 233.460,349.187 233.460 C 349.016 233.460,348.627 233.540,348.322 233.639 C 347.906 233.774,347.870 233.746,348.178 233.526 C 348.788 233.090,348.240 232.960,346.707 233.176 C 345.958 233.282,345.515 233.389,345.723 233.414 C 346.334 233.487,346.158 234.064,345.444 234.328 C 345.025 234.483,344.911 234.648,345.130 234.783 C 345.319 234.900,345.751 234.718,346.090 234.379 C 346.430 234.040,346.945 233.764,347.237 233.767 C 347.661 233.771,347.682 233.825,347.344 234.039 C 347.112 234.186,347.005 234.525,347.108 234.792 C 347.210 235.058,347.166 235.276,347.010 235.276 C 346.663 235.276,346.992 236.250,347.442 236.559 C 348.125 237.026,355.084 236.823,355.499 236.323 C 356.174 235.510,355.362 235.179,352.240 234.996 C 350.613 234.900,349.315 234.720,349.357 234.595 C 349.398 234.470,349.432 234.160,349.432 233.906 C 349.432 233.635,349.808 233.369,350.341 233.263 C 351.178 233.095,351.641 232.551,350.946 232.551 C 350.780 232.551,350.643 232.279,350.643 231.945 C 350.643 231.612,350.507 231.340,350.341 231.340 C 350.174 231.340,350.038 231.476,350.038 231.643 M130.507 234.371 C 131.590 234.492,132.748 234.679,133.081 234.787 C 133.414 234.895,133.278 234.782,132.778 234.538 C 132.279 234.293,131.120 234.106,130.204 234.122 L 128.539 234.151 130.507 234.371 M250.492 234.811 C 249.618 235.218,248.902 235.618,248.902 235.700 C 248.902 235.782,249.663 235.500,250.593 235.074 C 252.281 234.302,254.802 234.180,256.624 234.782 C 256.957 234.892,256.821 234.782,256.321 234.538 C 254.886 233.834,252.333 233.954,250.492 234.811 M344.058 235.125 C 344.062 235.791,344.124 236.028,344.196 235.651 C 344.268 235.275,344.266 234.730,344.190 234.440 C 344.114 234.151,344.055 234.459,344.058 235.125 M126.117 235.239 C 125.617 235.550,124.800 236.265,124.302 236.828 L 123.395 237.850 124.604 236.749 C 125.270 236.144,126.223 235.434,126.722 235.172 C 127.222 234.910,127.494 234.690,127.328 234.684 C 127.161 234.678,126.616 234.928,126.117 235.239 M334.974 235.272 C 332.900 236.147,334.395 236.790,338.498 236.790 C 342.099 236.790,343.305 236.401,342.298 235.563 C 341.671 235.042,336.049 234.819,334.974 235.272 M134.444 235.360 C 134.444 235.418,134.886 235.789,135.428 236.186 C 136.037 236.631,136.248 236.705,135.983 236.377 C 135.579 235.881,134.444 235.130,134.444 235.360 M258.965 236.363 C 259.586 237.014,260.311 237.820,260.577 238.153 C 261.218 238.957,260.764 238.076,259.989 237.013 C 259.654 236.552,259.032 235.951,258.607 235.677 C 258.040 235.311,258.135 235.493,258.965 236.363 M328.199 235.550 C 329.415 236.320,327.994 236.488,320.245 236.488 C 312.234 236.488,311.611 236.425,312.227 235.683 C 312.620 235.209,327.466 235.086,328.199 235.550 M342.044 235.660 C 342.646 236.263,341.444 236.503,338.228 236.422 C 334.981 236.341,333.389 235.844,335.259 235.496 C 336.415 235.280,341.795 235.410,342.044 235.660 M355.261 235.837 C 355.813 236.389,354.928 236.513,351.105 236.422 C 347.717 236.341,346.284 235.924,347.826 235.468 C 348.772 235.188,354.918 235.493,355.261 235.837 M56.229 237.075 C 56.434 237.860,57.624 237.949,57.476 237.169 C 57.420 236.877,57.080 236.597,56.720 236.545 C 56.191 236.470,56.097 236.571,56.229 237.075 M58.895 238.059 C 58.728 238.207,58.319 238.524,57.986 238.761 C 57.448 239.145,57.440 239.195,57.911 239.203 C 58.202 239.208,58.441 239.076,58.441 238.910 C 58.441 238.743,58.713 238.607,59.046 238.607 C 59.716 238.607,59.867 239.076,59.273 239.315 C 59.065 239.399,59.330 239.478,59.861 239.492 C 60.392 239.505,60.911 239.379,61.014 239.213 C 61.117 239.046,60.989 238.910,60.729 238.910 C 60.470 238.910,60.257 238.806,60.257 238.680 C 60.257 238.257,59.208 237.779,58.895 238.059 M64.421 239.068 C 64.280 239.805,64.309 239.833,64.747 239.395 C 65.090 239.051,65.134 238.821,64.901 238.588 C 64.668 238.355,64.531 238.492,64.421 239.068 M261.192 239.505 C 261.306 239.915,261.511 240.937,261.648 241.776 L 261.897 243.301 261.782 241.574 C 261.719 240.625,261.514 239.603,261.326 239.303 C 261.035 238.837,261.015 238.866,261.192 239.505 M61.175 239.504 C 60.930 239.659,60.799 239.856,60.885 239.941 C 61.120 240.176,62.377 239.787,62.377 239.480 C 62.377 239.133,61.741 239.145,61.175 239.504 M138.154 242.089 C 138.157 242.755,138.219 242.992,138.291 242.616 C 138.364 242.239,138.361 241.694,138.285 241.404 C 138.209 241.115,138.150 241.423,138.154 242.089 M146.625 246.552 C 146.096 248.780,145.189 250.489,143.340 252.745 C 142.444 253.838,141.711 254.823,141.711 254.934 C 141.711 255.045,141.032 255.539,140.203 256.031 C 137.837 257.436,138.427 260.017,141.559 261.962 L 142.468 262.526 140.045 262.578 C 138.005 262.621,138.219 262.660,141.408 262.821 C 143.490 262.927,145.238 262.905,145.293 262.773 C 145.348 262.642,145.893 262.301,146.504 262.017 C 149.092 260.812,149.837 259.055,149.495 254.958 L 149.432 254.201 155.110 254.105 L 160.787 254.010 160.787 255.028 C 160.787 256.976,159.034 258.196,155.999 258.359 L 153.481 258.494 151.305 260.642 C 149.791 262.137,148.853 262.826,148.221 262.908 C 147.721 262.973,149.243 263.085,151.603 263.156 C 153.963 263.227,155.835 263.227,155.763 263.155 C 155.691 263.084,156.989 261.646,158.649 259.959 C 161.651 256.909,162.470 255.665,162.147 254.648 C 161.879 253.803,167.396 253.697,206.132 253.803 C 225.326 253.856,241.030 253.817,241.030 253.716 C 241.030 253.616,240.412 252.594,239.657 251.445 C 238.901 250.297,238.011 248.476,237.678 247.400 C 237.346 246.324,236.907 245.336,236.705 245.204 C 236.502 245.072,216.233 244.974,191.664 244.987 L 146.991 245.011 146.625 246.552 M260.450 246.169 C 260.080 246.827,259.272 247.794,258.655 248.317 C 258.037 248.840,257.805 249.129,258.138 248.960 C 259.171 248.434,261.583 245.433,261.244 245.094 C 261.177 245.027,260.819 245.511,260.450 246.169 M135.201 248.197 C 134.534 248.794,134.262 249.141,134.595 248.969 C 135.156 248.678,136.829 247.070,136.540 247.098 C 136.470 247.105,135.867 247.599,135.201 248.197 M247.800 247.622 C 248.039 248.010,249.811 249.321,249.811 249.110 C 249.811 249.035,249.311 248.593,248.699 248.126 C 248.088 247.660,247.683 247.433,247.800 247.622 M125.923 248.884 C 126.316 249.227,126.782 249.508,126.958 249.508 C 127.330 249.508,127.312 249.493,126.117 248.793 L 125.208 248.261 125.923 248.884 M365.112 249.429 C 365.992 249.490,367.355 249.489,368.140 249.427 C 368.926 249.365,368.206 249.315,366.540 249.316 C 364.875 249.317,364.232 249.367,365.112 249.429 M362.891 249.837 C 362.291 250.808,368.786 251.620,369.881 250.711 C 370.396 250.284,370.475 249.508,370.005 249.508 C 369.828 249.508,369.778 249.659,369.892 249.845 C 370.262 250.442,369.320 250.710,366.843 250.710 C 363.959 250.711,362.963 250.496,363.183 249.922 C 363.373 249.428,363.178 249.371,362.891 249.837 M261.728 257.844 C 259.896 259.623,259.738 259.868,260.157 260.287 C 260.710 260.840,264.345 257.508,264.345 256.448 C 264.345 255.506,263.880 255.754,261.728 257.844 M249.407 259.327 C 249.102 260.121,250.044 260.565,250.725 259.949 C 251.055 259.651,251.325 259.291,251.325 259.151 C 251.325 258.711,249.582 258.871,249.407 259.327 M131.416 259.914 C 131.416 261.067,130.908 262.158,130.297 262.316 C 129.996 262.394,131.113 262.448,132.778 262.436 C 134.504 262.423,135.051 262.367,134.050 262.304 C 132.393 262.201,132.306 262.157,132.518 261.529 C 132.972 260.181,132.819 259.355,132.097 259.252 C 131.546 259.174,131.416 259.301,131.416 259.914 M253.520 260.677 C 253.145 261.477,252.839 262.281,252.839 262.462 C 252.839 262.644,252.396 262.854,251.855 262.929 C 251.313 263.004,252.669 263.048,254.866 263.027 C 258.561 262.991,258.874 262.943,259.017 262.395 C 259.329 261.204,258.595 260.947,257.680 261.927 C 256.188 263.524,253.956 263.145,254.852 261.447 C 255.908 259.445,255.928 259.196,255.027 259.210 C 254.342 259.220,254.085 259.470,253.520 260.677 M304.391 260.315 C 304.682 260.391,305.159 260.391,305.450 260.315 C 305.742 260.239,305.503 260.176,304.921 260.176 C 304.338 260.176,304.099 260.239,304.391 260.315 M102.877 260.622 C 103.251 260.695,103.864 260.695,104.239 260.622 C 104.614 260.550,104.307 260.491,103.558 260.491 C 102.808 260.491,102.502 260.550,102.877 260.622 M301.514 260.622 C 301.889 260.695,302.502 260.695,302.877 260.622 C 303.251 260.550,302.945 260.491,302.195 260.491 C 301.446 260.491,301.139 260.550,301.514 260.622 M105.908 260.926 C 106.285 260.998,106.830 260.995,107.119 260.920 C 107.409 260.844,107.101 260.785,106.435 260.788 C 105.768 260.791,105.531 260.853,105.908 260.926 M298.792 260.926 C 299.169 260.998,299.714 260.995,300.004 260.920 C 300.293 260.844,299.985 260.785,299.319 260.788 C 298.653 260.791,298.416 260.853,298.792 260.926 M108.938 261.234 C 109.482 261.301,110.300 261.300,110.755 261.231 C 111.210 261.162,110.765 261.107,109.765 261.108 C 108.766 261.110,108.394 261.166,108.938 261.234 M247.066 261.792 C 246.457 262.440,246.414 262.604,246.791 262.843 C 247.077 263.024,245.125 263.149,241.332 263.192 L 235.428 263.260 241.484 263.424 C 244.815 263.514,247.609 263.497,247.694 263.386 C 247.779 263.274,248.287 263.138,248.824 263.083 L 249.799 262.983 248.794 262.003 L 247.788 261.024 247.066 261.792 M294.852 261.233 C 295.394 261.301,296.279 261.301,296.821 261.233 C 297.362 261.166,296.919 261.111,295.836 261.111 C 294.754 261.111,294.311 261.166,294.852 261.233 M113.177 261.537 C 113.722 261.604,114.539 261.603,114.994 261.534 C 115.449 261.464,115.004 261.409,114.005 261.411 C 113.005 261.413,112.633 261.469,113.177 261.537 M290.921 261.537 C 291.466 261.604,292.283 261.603,292.738 261.534 C 293.193 261.464,292.748 261.409,291.749 261.411 C 290.749 261.413,290.377 261.469,290.921 261.537 M118.168 261.841 C 118.793 261.906,119.815 261.906,120.439 261.841 C 121.064 261.775,120.553 261.722,119.304 261.722 C 118.055 261.722,117.544 261.775,118.168 261.841 M285.474 261.842 C 286.186 261.906,287.276 261.905,287.896 261.840 C 288.516 261.775,287.933 261.723,286.601 261.724 C 285.269 261.725,284.761 261.778,285.474 261.842 M124.233 262.146 C 125.029 262.208,126.256 262.208,126.958 262.144 C 127.661 262.081,127.010 262.029,125.511 262.030 C 124.012 262.031,123.437 262.083,124.233 262.146 M279.267 262.146 C 280.063 262.208,281.290 262.208,281.992 262.144 C 282.695 262.081,282.044 262.029,280.545 262.030 C 279.046 262.031,278.471 262.083,279.267 262.146 M272.000 262.449 C 272.796 262.511,274.022 262.510,274.725 262.447 C 275.428 262.383,274.777 262.332,273.278 262.333 C 271.779 262.334,271.204 262.386,272.000 262.449 M262.617 262.753 C 263.748 262.812,265.519 262.811,266.553 262.752 C 267.587 262.693,266.662 262.646,264.497 262.646 C 262.332 262.647,261.486 262.695,262.617 262.753 M161.030 263.360 C 162.746 263.414,165.472 263.414,167.087 263.360 C 168.701 263.305,167.298 263.261,163.967 263.261 C 160.636 263.261,159.315 263.306,161.030 263.360 M190.992 263.664 C 197.528 263.709,208.225 263.709,214.762 263.664 C 221.298 263.618,215.950 263.581,202.877 263.581 C 189.803 263.581,184.455 263.618,190.992 263.664 " stroke="none" fill="#b1d7f6" fill-rule="evenodd"></path><path id="path4" d="M145.496 147.074 C 143.054 147.408,142.199 147.841,140.454 149.630 C 139.107 151.011,138.683 151.660,138.683 152.337 L 138.683 153.228 135.321 153.024 C 132.120 152.829,131.964 152.847,132.069 153.397 C 132.185 154.003,133.874 154.309,137.774 154.428 C 140.981 154.526,145.801 155.128,146.021 155.458 C 146.175 155.688,146.245 155.674,146.248 155.413 C 146.254 154.954,148.549 154.887,148.827 155.338 C 148.950 155.537,149.238 155.522,149.663 155.294 C 150.043 155.091,150.351 155.065,150.407 155.232 C 150.459 155.389,150.976 155.462,151.557 155.394 L 152.612 155.271 152.612 153.326 C 152.612 149.955,151.363 148.239,148.254 147.335 C 147.352 147.073,146.567 146.879,146.509 146.904 C 146.451 146.929,145.995 147.005,145.496 147.074 M181.797 154.865 C 181.705 155.105,181.683 155.548,181.748 155.849 C 181.822 156.191,181.926 156.027,182.024 155.413 C 182.189 154.381,182.082 154.123,181.797 154.865 M224.605 159.651 C 224.750 169.427,224.855 170.341,224.918 162.377 C 224.953 158.005,224.879 154.428,224.754 154.428 C 224.629 154.428,224.562 156.778,224.605 159.651 M202.044 157.665 C 202.335 157.741,202.812 157.741,203.104 157.665 C 203.395 157.589,203.157 157.527,202.574 157.527 C 201.991 157.527,201.752 157.589,202.044 157.665 M257.154 158.516 C 257.158 159.182,257.220 159.419,257.292 159.043 C 257.365 158.666,257.362 158.121,257.286 157.831 C 257.210 157.542,257.151 157.850,257.154 158.516 M187.244 163.361 C 187.245 165.193,187.295 165.903,187.355 164.940 C 187.415 163.976,187.415 162.477,187.354 161.609 C 187.293 160.741,187.244 161.529,187.244 163.361 M201.741 160.693 C 202.033 160.769,202.509 160.769,202.801 160.693 C 203.092 160.617,202.854 160.555,202.271 160.555 C 201.688 160.555,201.450 160.617,201.741 160.693 M249.205 160.604 C 249.205 160.670,249.739 160.775,250.391 160.837 C 251.043 160.899,251.512 160.845,251.433 160.717 C 251.289 160.484,249.205 160.379,249.205 160.604 M203.533 162.052 C 203.495 163.119,203.352 163.502,202.952 163.607 C 202.456 163.736,202.456 163.747,202.962 163.780 C 203.649 163.825,203.857 163.272,203.705 161.803 C 203.588 160.677,203.582 160.686,203.533 162.052 M148.831 163.363 C 147.002 164.611,145.351 165.632,145.163 165.632 C 144.525 165.632,141.265 168.027,139.510 169.786 C 137.643 171.657,136.909 173.155,136.216 176.511 C 135.378 180.568,131.972 181.838,125.208 180.616 C 118.989 179.492,115.685 180.306,115.675 182.963 L 115.670 184.093 133.460 184.174 C 143.244 184.218,151.488 184.183,151.780 184.096 C 152.336 183.930,152.383 177.663,151.852 174.565 C 151.652 173.398,151.676 173.352,152.490 173.306 C 153.953 173.224,154.126 172.618,154.126 167.566 C 154.126 163.045,154.110 162.935,153.342 162.022 C 152.341 160.833,152.691 160.729,148.831 163.363 M257.185 164.572 C 257.185 166.071,257.236 166.723,257.299 166.020 C 257.363 165.317,257.363 164.091,257.301 163.295 C 257.238 162.498,257.186 163.073,257.185 164.572 M273.819 167.298 C 273.821 168.130,273.880 168.435,273.949 167.975 C 274.019 167.514,274.017 166.833,273.945 166.461 C 273.873 166.088,273.816 166.465,273.819 167.298 M215.685 168.660 C 215.685 169.576,215.742 169.951,215.811 169.493 C 215.881 169.035,215.881 168.285,215.811 167.827 C 215.742 167.369,215.685 167.744,215.685 168.660 M181.751 169.266 C 181.751 169.849,181.813 170.087,181.889 169.796 C 181.965 169.504,181.965 169.027,181.889 168.736 C 181.813 168.444,181.751 168.683,181.751 169.266 " stroke="none" fill="#c52a2d" fill-rule="evenodd"></path></g></svg>